<svg width="306" height="92" viewBox="0 0 306 92" fill="none" xmlns="http://www.w3.org/2000/svg">
<g clip-path="url(#clip0)">
<path fill-rule="evenodd" clip-rule="evenodd" d="M189.395 71.9468C171.654 85.0232 145.94 92 123.801 92C92.7574 92 64.8106 80.5183 43.6677 61.4219C42.0066 59.9203 43.495 57.8738 45.4883 59.0432C68.3056 72.3189 96.5182 80.3056 125.661 80.3056C145.315 80.3056 166.937 76.2392 186.817 67.8007C189.82 66.5249 192.332 69.7674 189.395 71.9468Z" fill="#E0E0E0"/>
<path fill-rule="evenodd" clip-rule="evenodd" d="M196.771 63.5083C194.511 60.6113 181.781 62.1395 176.066 62.8173C174.325 63.0299 174.06 61.515 175.628 60.4253C185.767 53.2891 202.405 55.3489 204.345 57.7409C206.285 60.1462 203.84 76.8239 194.312 84.784C192.85 86.0066 191.455 85.3555 192.106 83.7342C194.246 78.392 199.043 66.4186 196.771 63.5083Z" fill="#E0E0E0"/>
<path fill-rule="evenodd" clip-rule="evenodd" d="M176.465 10.0465V3.10962C176.465 2.05979 177.262 1.35547 178.219 1.35547H209.276C210.272 1.35547 211.07 2.07308 211.07 3.10962V9.04981C211.056 10.0465 210.219 11.3488 208.731 13.4086L192.638 36.3853C198.618 36.2392 204.93 37.1295 210.352 40.186C211.575 40.877 211.907 41.887 212 42.8837V50.2857C212 51.2956 210.884 52.4783 209.714 51.8671C200.159 46.8571 187.468 46.3122 176.904 51.9202C175.827 52.5049 174.698 51.3355 174.698 50.3255V43.2956C174.698 42.1661 174.711 40.2392 175.84 38.5249L194.485 11.7874H178.259C177.262 11.7874 176.465 11.083 176.465 10.0465Z" fill="#E0E0E0"/>
<path fill-rule="evenodd" clip-rule="evenodd" d="M63.176 53.3291H53.7275C52.8239 53.2626 52.1063 52.5849 52.0398 51.7211V3.22946C52.0398 2.25936 52.8505 1.48859 53.8604 1.48859H62.671C63.588 1.52843 64.3189 2.23277 64.3853 3.10985V9.44872H64.5581C66.8571 3.32247 71.176 0.465332 76.9966 0.465332C82.9102 0.465332 86.6046 3.32247 89.2624 9.44872C91.5481 3.32247 96.7441 0.465332 102.312 0.465332C106.272 0.465332 110.605 2.09988 113.249 5.76765C116.239 9.84738 115.628 15.7743 115.628 20.9703L115.615 51.5749C115.615 52.545 114.804 53.3291 113.794 53.3291H104.359C103.415 53.2626 102.658 52.5052 102.658 51.5749V25.874C102.658 23.8274 102.844 18.7245 102.392 16.7843C101.688 13.5285 99.5747 12.6115 96.8371 12.6115C94.5514 12.6115 92.1594 14.1397 91.1893 16.5849C90.2192 19.0301 90.3122 23.1231 90.3122 25.874V51.5749C90.3122 52.545 89.5016 53.3291 88.4916 53.3291H79.0564C78.0996 53.2626 77.3554 52.5052 77.3554 51.5749L77.3421 25.874C77.3421 20.4653 78.2325 12.5052 71.5216 12.5052C64.7309 12.5052 64.9966 20.266 64.9966 25.874V51.5749C64.9966 52.545 64.186 53.3291 63.176 53.3291" fill="#E0E0E0"/>
<path fill-rule="evenodd" clip-rule="evenodd" d="M237.807 0.465332C251.827 0.465332 259.415 12.5052 259.415 27.8141C259.415 42.6048 251.03 54.339 237.807 54.339C224.04 54.339 216.545 42.2992 216.545 27.2959C216.545 12.1995 224.133 0.465332 237.807 0.465332ZM237.887 10.3657C230.923 10.3657 230.485 19.854 230.485 25.7676C230.485 31.6945 230.392 44.3457 237.807 44.3457C245.129 44.3457 245.475 34.1397 245.475 27.9205C245.475 23.8274 245.302 18.9371 244.066 15.0567C243.003 11.6813 240.89 10.3657 237.887 10.3657Z" fill="#E0E0E0"/>
<path fill-rule="evenodd" clip-rule="evenodd" d="M277.594 53.3291H268.186C267.242 53.2626 266.485 52.5052 266.485 51.5749L266.472 3.06998C266.551 2.17962 267.335 1.48859 268.292 1.48859H277.05C277.874 1.52843 278.551 2.0866 278.737 2.84407V10.2593H278.91C281.555 3.62812 285.262 0.465332 291.787 0.465332C296.026 0.465332 300.159 1.99357 302.817 6.17961C305.289 10.06 305.289 16.5849 305.289 21.2759V51.8008C305.182 52.6513 304.398 53.3291 303.468 53.3291H293.993C293.129 53.2626 292.412 52.6248 292.319 51.8008V25.462C292.319 20.1597 292.93 12.3989 286.405 12.3989C284.106 12.3989 281.993 13.9404 280.943 16.2793C279.614 19.2427 279.442 22.1929 279.442 25.462V51.5749C279.428 52.545 278.604 53.3291 277.594 53.3291" fill="#E0E0E0"/>
<path fill-rule="evenodd" clip-rule="evenodd" d="M151.708 30.1661C151.708 33.8471 151.801 36.9169 149.94 40.186C148.438 42.8438 146.046 44.4784 143.402 44.4784C139.774 44.4784 137.648 41.7143 137.648 37.6345C137.648 29.5814 144.864 28.1196 151.708 28.1196V30.1661ZM161.236 53.196C160.611 53.7541 159.708 53.794 159.003 53.4219C155.867 50.8172 155.296 49.6079 153.581 47.1229C148.399 52.4119 144.717 53.9933 138.007 53.9933C130.046 53.9933 123.867 49.0897 123.867 39.2691C123.867 31.6013 128.013 26.3787 133.94 23.8272C139.07 21.5681 146.232 21.1694 151.708 20.5448V19.3223C151.708 17.0764 151.88 14.4186 150.551 12.4784C149.409 10.7375 147.203 10.0199 145.249 10.0199C141.648 10.0199 138.445 11.8671 137.661 15.6943C137.502 16.5448 136.877 17.3821 136.013 17.4219L126.857 16.4385C126.086 16.2658 125.222 15.6412 125.448 14.4585C127.548 3.34884 137.595 0 146.578 0C151.176 0 157.183 1.22259 160.81 4.70432C165.408 8.99667 164.97 14.7242 164.97 20.9568V35.681C164.97 40.1063 166.804 42.0465 168.531 44.4385C169.129 45.289 169.262 46.3123 168.492 46.9501C166.565 48.5581 163.136 51.5481 161.249 53.2226L161.236 53.1959" fill="#E0E0E0"/>
<path fill-rule="evenodd" clip-rule="evenodd" d="M27.8405 30.1663C27.8405 33.8474 27.9335 36.9172 26.0731 40.1863C24.5714 42.8441 22.1927 44.4786 19.5349 44.4786C15.907 44.4786 13.794 41.7145 13.794 37.6348C13.794 29.5816 21.0099 28.1198 27.8405 28.1198V30.1663ZM37.3687 53.1962C36.7442 53.7544 35.8405 53.7942 35.1362 53.4221C32 50.8175 31.4418 49.6082 29.7143 47.1231C24.5315 52.4122 20.8638 53.9936 14.1395 53.9936C6.19268 53.9936 0 49.0899 0 39.2693C0 31.6016 4.15946 26.379 10.0731 23.8275C15.2026 21.5683 22.3654 21.1697 27.8405 20.5451V19.3225C27.8405 17.0766 28.0133 14.4188 26.6977 12.4786C25.5415 10.7378 23.3355 10.0202 21.3953 10.0202C17.794 10.0202 14.5781 11.8673 13.794 15.6946C13.6345 16.5451 13.01 17.3823 12.1595 17.4222L2.99003 16.4388C2.21927 16.266 1.36877 15.6414 1.58139 14.4587C3.69435 3.34909 13.7276 0.000244141 22.7109 0.000244141C27.3089 0.000244141 33.3156 1.22284 36.9435 4.70456C41.5415 8.99691 41.1029 14.7245 41.1029 20.957V35.6813C41.1029 40.1065 42.9368 42.0467 44.6644 44.4388C45.2757 45.2892 45.4086 46.3125 44.6378 46.9504C42.7109 48.5584 39.2824 51.5484 37.3953 53.2228L37.3687 53.1962" fill="#E0E0E0"/>
</g>
<defs>
<clipPath id="clip0">
<rect width="305.289" height="92" fill="white"/>
</clipPath>
</defs>
</svg>
