<svg width="350" height="333" viewBox="0 0 350 333" fill="none" xmlns="http://www.w3.org/2000/svg">
<path fill-rule="evenodd" clip-rule="evenodd" d="M156.352 3.68197C184.079 9.79019 201.672 36.8309 226.051 52.515C254.307 70.6941 293.996 71.6182 310.296 102.724C327.252 135.08 318.674 175.926 309.553 211.86C300.083 249.168 286.633 287.653 257.693 309.96C228.933 332.13 190.924 337.112 156.352 329.952C125.201 323.501 102.052 297.457 79.5235 273.063C60.2225 252.164 48.6153 226.571 36.3815 200.052C21.5404 167.881 -4.45883 137.698 0.656409 102.102C5.95498 65.2299 33.203 35.2202 62.7523 16.5412C90.6592 -1.09968 124.753 -3.27915 156.352 3.68197Z" fill="#E91E63" fill-opacity="0.16"/>
<g clip-path="url(#clip0)">
<g opacity="0.5">
<path opacity="0.5" d="M144.702 23.9573H25.4035C24.4922 23.9573 23.7534 24.6961 23.7534 25.6074V207.631C23.7534 208.542 24.4922 209.281 25.4035 209.281H144.702C145.614 209.281 146.353 208.542 146.353 207.631V25.6074C146.353 24.6961 145.614 23.9573 144.702 23.9573Z" fill="url(#paint0_linear)"/>
</g>
<path d="M143.129 25.3177H26.973C26.0616 25.3177 25.3228 26.0565 25.3228 26.9679V205.243C25.3228 206.155 26.0616 206.893 26.973 206.893H143.129C144.041 206.893 144.779 206.155 144.779 205.243V26.9679C144.779 26.0565 144.041 25.3177 143.129 25.3177Z" fill="#F2F2F2"/>
<g opacity="0.5">
<path opacity="0.5" d="M59.5104 58.7682H38.9201C38.0088 58.7682 37.27 59.507 37.27 60.4183V78.6214C37.27 79.5327 38.0088 80.2715 38.9201 80.2715H59.5104C60.4217 80.2715 61.1605 79.5327 61.1605 78.6214V60.4183C61.1605 59.507 60.4217 58.7682 59.5104 58.7682Z" fill="#E91E63"/>
</g>
<path d="M131.802 58.7682H69.3636C68.7925 58.7682 68.3295 59.2312 68.3295 59.8023V60.125C68.3295 60.6961 68.7925 61.1591 69.3636 61.1591H131.802C132.373 61.1591 132.836 60.6961 132.836 60.125V59.8023C132.836 59.2312 132.373 58.7682 131.802 58.7682Z" fill="#E0E0E0"/>
<path d="M120.918 65.9336H69.3636C68.7925 65.9336 68.3295 66.3966 68.3295 66.9677V67.2904C68.3295 67.8615 68.7925 68.3245 69.3636 68.3245H120.918C121.489 68.3245 121.952 67.8615 121.952 67.2904V66.9677C121.952 66.3966 121.489 65.9336 120.918 65.9336Z" fill="#E0E0E0"/>
<g opacity="0.5">
<path opacity="0.5" d="M59.5104 92.215H38.9201C38.0088 92.215 37.27 92.9538 37.27 93.8651V112.068C37.27 112.98 38.0088 113.718 38.9201 113.718H59.5104C60.4217 113.718 61.1605 112.98 61.1605 112.068V93.8651C61.1605 92.9538 60.4217 92.215 59.5104 92.215Z" fill="#E91E63"/>
</g>
<path d="M131.802 92.215H69.3636C68.7925 92.215 68.3295 92.6779 68.3295 93.2491V93.5718C68.3295 94.1429 68.7925 94.6059 69.3636 94.6059H131.802C132.373 94.6059 132.836 94.1429 132.836 93.5718V93.2491C132.836 92.6779 132.373 92.215 131.802 92.215Z" fill="#E0E0E0"/>
<path d="M131.802 99.3804H69.3636C68.7925 99.3804 68.3295 99.8434 68.3295 100.414V100.737C68.3295 101.308 68.7925 101.771 69.3636 101.771H131.802C132.373 101.771 132.836 101.308 132.836 100.737V100.414C132.836 99.8434 132.373 99.3804 131.802 99.3804Z" fill="#E0E0E0"/>
<g opacity="0.5">
<path opacity="0.5" d="M59.5104 125.662H38.9201C38.0088 125.662 37.27 126.401 37.27 127.312V145.515C37.27 146.426 38.0088 147.165 38.9201 147.165H59.5104C60.4217 147.165 61.1605 146.426 61.1605 145.515V127.312C61.1605 126.401 60.4217 125.662 59.5104 125.662Z" fill="#E91E63"/>
</g>
<path d="M131.802 125.662H69.3636C68.7925 125.662 68.3295 126.125 68.3295 126.696V127.019C68.3295 127.59 68.7925 128.053 69.3636 128.053H131.802C132.373 128.053 132.836 127.59 132.836 127.019V126.696C132.836 126.125 132.373 125.662 131.802 125.662Z" fill="#E0E0E0"/>
<path d="M74.4644 132.831H69.3636C68.7925 132.831 68.3295 133.294 68.3295 133.865V134.188C68.3295 134.759 68.7925 135.222 69.3636 135.222H74.4644C75.0356 135.222 75.4985 134.759 75.4985 134.188V133.865C75.4985 133.294 75.0356 132.831 74.4644 132.831Z" fill="#E0E0E0"/>
<g opacity="0.5">
<path opacity="0.5" d="M219.154 83.627H101.692C100.781 83.627 100.042 84.3658 100.042 85.2771V190.909C100.042 191.82 100.781 192.559 101.692 192.559H219.154C220.065 192.559 220.804 191.82 220.804 190.909V85.2771C220.804 84.3658 220.065 83.627 219.154 83.627Z" fill="url(#paint1_linear)"/>
</g>
<path d="M217.493 84.7197H103.559C102.647 84.7197 101.908 85.4585 101.908 86.3699V188.58C101.908 189.492 102.647 190.231 103.559 190.231H217.493C218.404 190.231 219.143 189.492 219.143 188.58V86.3699C219.143 85.4585 218.404 84.7197 217.493 84.7197Z" fill="white"/>
<g opacity="0.5">
<path opacity="0.5" d="M136.958 107.389H115.069C114.158 107.389 113.419 108.128 113.419 109.039V128.408C113.419 129.32 114.158 130.059 115.069 130.059H136.958C137.869 130.059 138.608 129.32 138.608 128.408V109.039C138.608 108.128 137.869 107.389 136.958 107.389Z" fill="#E91E63"/>
</g>
<path d="M213.081 107.389H147.258C146.655 107.389 146.166 107.878 146.166 108.482V108.816C146.166 109.419 146.655 109.908 147.258 109.908H213.081C213.685 109.908 214.174 109.419 214.174 108.816V108.482C214.174 107.878 213.685 107.389 213.081 107.389Z" fill="#E0E0E0"/>
<path d="M213.081 114.947H147.258C146.655 114.947 146.166 115.436 146.166 116.04V116.373C146.166 116.977 146.655 117.466 147.258 117.466H213.081C213.685 117.466 214.174 116.977 214.174 116.373V116.04C214.174 115.436 213.685 114.947 213.081 114.947Z" fill="#E0E0E0"/>
<path d="M213.081 142.372H111.993C111.389 142.372 110.9 142.862 110.9 143.465V143.799C110.9 144.402 111.389 144.892 111.993 144.892H213.081C213.685 144.892 214.174 144.402 214.174 143.799V143.465C214.174 142.862 213.685 142.372 213.081 142.372Z" fill="#E0E0E0"/>
<path d="M213.081 149.93H111.993C111.389 149.93 110.9 150.419 110.9 151.023V151.357C110.9 151.96 111.389 152.449 111.993 152.449H213.081C213.685 152.449 214.174 151.96 214.174 151.357V151.023C214.174 150.419 213.685 149.93 213.081 149.93Z" fill="#E0E0E0"/>
<path d="M213.081 160.003H111.993C111.389 160.003 110.9 160.493 110.9 161.096V161.43C110.9 162.033 111.389 162.523 111.993 162.523H213.081C213.685 162.523 214.174 162.033 214.174 161.43V161.096C214.174 160.493 213.685 160.003 213.081 160.003Z" fill="#E0E0E0"/>
<path d="M187.892 167.561H111.993C111.389 167.561 110.9 168.05 110.9 168.654V168.988C110.9 169.591 111.389 170.08 111.993 170.08H187.892C188.496 170.08 188.985 169.591 188.985 168.988V168.654C188.985 168.05 188.496 167.561 187.892 167.561Z" fill="#E0E0E0"/>
<g opacity="0.5">
<path opacity="0.5" d="M223.723 124.389L224.152 122.475L223.55 124.345C207.91 120.121 191.787 117.947 175.586 117.877C58.8577 117.187 4.56757 220.351 4.56757 220.351L115.187 278.716C115.187 278.716 128.755 236.64 176.943 238.012C180.257 238.102 183.564 238.391 186.844 238.877L172.183 284.542C171.556 285.434 171.115 286.443 170.886 287.508C170.656 288.573 170.643 289.674 170.847 290.745C171.051 291.815 171.467 292.834 172.072 293.741C172.677 294.647 173.458 295.423 174.368 296.022C175.278 296.622 176.3 297.032 177.372 297.229C178.444 297.426 179.544 297.406 180.608 297.17C181.672 296.934 182.678 296.486 183.566 295.854C184.453 295.222 185.205 294.418 185.777 293.49V293.468C186.537 292.231 186.952 290.813 186.976 289.361C186.976 289.115 186.976 288.869 186.95 288.627L197.548 241.272C229.121 250.982 238.688 278.712 238.688 278.712L350 223.065C350 223.065 308.196 147.33 223.723 124.389Z" fill="url(#paint2_linear)"/>
</g>
<path d="M175.608 119.021C60.3685 118.35 6.76776 220.19 6.76776 220.19L115.979 277.802C115.979 277.802 129.378 236.263 176.95 237.601C180.301 237.692 183.643 237.988 186.957 238.488L223.121 125.453C207.63 121.253 191.658 119.091 175.608 119.021Z" fill="#E91E63"/>
<path d="M223.121 125.453L186.957 238.499C226.422 244.495 237.918 277.802 237.918 277.802L347.8 222.871C347.8 222.871 306.513 148.1 223.121 125.453Z" fill="#E0E0E0"/>
<path d="M186.84 287.597L223.554 123.561L172.245 283.563C171.617 284.443 171.172 285.441 170.938 286.497C170.704 287.552 170.685 288.644 170.883 289.707C171.081 290.77 171.492 291.783 172.09 292.683C172.688 293.584 173.462 294.355 174.366 294.95C175.269 295.544 176.283 295.95 177.347 296.144C178.41 296.338 179.502 296.315 180.557 296.076C181.612 295.838 182.608 295.389 183.485 294.757C184.362 294.125 185.103 293.322 185.663 292.397V292.375C186.414 291.155 186.823 289.755 186.847 288.323C186.869 288.07 186.858 287.835 186.84 287.597Z" fill="#535461"/>
<g opacity="0.7">
<path opacity="0.7" d="M200.111 118.827L199.15 118.647L201.046 111.68C204.031 89.3107 192.755 87.0409 188.527 86.9639C188.041 86.786 187.545 86.6354 187.042 86.5128V83.8726C189.702 83.2162 192.111 81.7944 193.972 79.7831C195.833 77.7719 197.063 75.2593 197.511 72.5562H197.548C198.219 72.5562 198.765 71.5331 198.765 70.2716C198.791 69.603 198.605 68.9431 198.233 68.3868C198.282 67.8978 198.307 67.4089 198.307 66.92C198.308 64.9457 197.908 62.9917 197.131 61.1769C196.353 59.362 195.215 57.7241 193.785 56.3626C193.59 55.3872 193.241 54.4489 192.751 53.5831C191.713 51.7495 189.986 49.85 190.69 47.8662L186.132 48.3356L186.088 45.3323C184.665 45.589 184.068 47.2355 183.224 48.4089C181.193 51.2325 177.119 51.6249 174.424 53.8251C173.507 54.5585 171.446 56.8467 171.838 58.3392C170.028 60.8295 169.055 63.8302 169.059 66.909C169.059 67.3979 169.083 67.8868 169.132 68.3758C168.76 68.9321 168.574 69.5919 168.6 70.2606C168.6 71.5221 169.147 72.5452 169.818 72.5452H169.854C170.302 75.2483 171.533 77.7609 173.393 79.7721C175.254 81.7834 177.664 83.2052 180.324 83.8616V86.5018C179.821 86.6244 179.325 86.775 178.839 86.9529C174.611 87.0299 163.334 89.2851 166.319 111.669L168.215 118.636L167.764 118.72C167.093 118.845 166.454 119.101 165.882 119.474C165.31 119.846 164.817 120.328 164.431 120.89C164.046 121.453 163.774 122.087 163.633 122.754C163.492 123.422 163.484 124.111 163.609 124.782L171.101 164.822C171.178 165.232 171.414 165.594 171.758 165.83C172.101 166.066 172.525 166.156 172.935 166.08L174.251 165.834V166.611C173.521 166.972 172.905 167.53 172.475 168.222C172.045 168.914 171.817 169.713 171.816 170.528V171.023H180.646V170.528C180.646 169.772 180.45 169.028 180.076 168.371C179.703 167.713 179.165 167.164 178.516 166.776V165.035L179.719 164.811C180.128 164.734 180.491 164.498 180.727 164.154C180.963 163.811 181.053 163.387 180.976 162.977L173.958 125.361H193.419L186.407 162.981C186.331 163.391 186.421 163.814 186.657 164.158C186.893 164.502 187.255 164.738 187.665 164.815L188.868 165.038V166.78C188.219 167.168 187.681 167.717 187.308 168.375C186.934 169.032 186.738 169.775 186.737 170.531V171.026H195.567V170.531C195.567 169.717 195.339 168.918 194.909 168.226C194.478 167.534 193.863 166.976 193.133 166.615V165.838L194.449 166.083C194.859 166.159 195.282 166.07 195.626 165.834C195.97 165.598 196.206 165.235 196.283 164.826L203.851 124.283C203.964 123.679 203.957 123.059 203.83 122.458C203.703 121.857 203.459 121.286 203.112 120.78C202.765 120.273 202.321 119.839 201.806 119.504C201.291 119.169 200.715 118.939 200.111 118.827Z" fill="url(#paint3_linear)"/>
</g>
<path d="M178.714 160.737H174.614V166.303H178.714V160.737Z" fill="#FDB797"/>
<path d="M192.773 160.737H188.674V166.303H192.773V160.737Z" fill="#FDB797"/>
<path d="M197.17 115.046H170.221V124.712H197.17V115.046Z" fill="#4D8AF0"/>
<g opacity="0.05">
<path opacity="0.05" d="M197.17 115.046H170.221V124.712H197.17V115.046Z" fill="black"/>
</g>
<path opacity="0.1" d="M170.221 116.802C170.221 116.802 180.276 119.146 183.694 119.146C187.111 119.146 197.166 116.802 197.166 116.802V115.336H170.221V116.802Z" fill="black"/>
<path d="M197.166 116.509C197.166 116.509 187.111 118.852 183.694 118.852C180.276 118.852 170.221 116.509 170.221 116.509V100.4C170.221 96.8267 171.641 93.3999 174.167 90.8733C176.694 88.3467 180.121 86.9272 183.694 86.9272C187.267 86.9272 190.694 88.3467 193.22 90.8733C195.747 93.3999 197.166 96.8267 197.166 100.4V116.509Z" fill="#F55F44"/>
<path d="M180.474 80.1873H186.917V87.9393C186.917 88.6794 186.623 89.3892 186.1 89.9126C185.576 90.4359 184.867 90.7299 184.126 90.7299H183.268C182.528 90.7299 181.818 90.4359 181.295 89.9126C180.772 89.3892 180.478 88.6794 180.478 87.9393V80.1873H180.474Z" fill="#FDB797"/>
<path d="M179.484 162.739L173.708 163.817C173.216 163.906 172.709 163.797 172.296 163.513C171.884 163.229 171.601 162.794 171.508 162.303L164.622 125.398C164.47 124.59 164.48 123.76 164.649 122.956C164.819 122.152 165.145 121.389 165.61 120.711C166.074 120.033 166.668 119.453 167.356 119.004C168.045 118.556 168.815 118.247 169.623 118.097L171.112 117.818C171.605 117.729 172.112 117.838 172.524 118.122C172.936 118.406 173.22 118.841 173.312 119.333L181.013 160.524C181.059 160.77 181.056 161.023 181.004 161.267C180.952 161.512 180.852 161.744 180.71 161.95C180.568 162.156 180.386 162.332 180.176 162.467C179.965 162.602 179.73 162.695 179.484 162.739Z" fill="#4D8AF0"/>
<path d="M187.889 162.739L193.664 163.817C194.157 163.906 194.664 163.797 195.076 163.513C195.489 163.229 195.772 162.794 195.865 162.303L202.869 124.782C203.142 123.314 202.821 121.797 201.977 120.566C201.132 119.334 199.833 118.488 198.365 118.214L196.261 117.822C195.768 117.733 195.261 117.842 194.848 118.126C194.436 118.409 194.153 118.845 194.06 119.336L186.36 160.528C186.314 160.773 186.318 161.026 186.37 161.27C186.422 161.514 186.522 161.746 186.665 161.951C186.807 162.157 186.988 162.332 187.198 162.467C187.408 162.603 187.643 162.695 187.889 162.739Z" fill="#4D8AF0"/>
<path opacity="0.1" d="M180.474 85.0717C182.59 85.5923 184.801 85.5923 186.917 85.0717V80.4806H180.474V85.0717Z" fill="black"/>
<path d="M183.694 82.5304C191.458 82.5304 197.753 76.2358 197.753 68.4711C197.753 60.7063 191.458 54.4117 183.694 54.4117C175.929 54.4117 169.634 60.7063 169.634 68.4711C169.634 76.2358 175.929 82.5304 183.694 82.5304Z" fill="#333333"/>
<path d="M183.694 85.167C191.134 85.167 197.166 79.1351 197.166 71.6944C197.166 64.2537 191.134 58.2218 183.694 58.2218C176.253 58.2218 170.221 64.2537 170.221 71.6944C170.221 79.1351 176.253 85.167 183.694 85.167Z" fill="#FDB797"/>
<path d="M174.798 55.8823C177.39 53.7664 181.31 53.3887 183.261 50.6714C184.071 49.542 184.647 47.9542 186.015 47.7085L186.055 50.5981L190.456 50.1471C189.777 52.0539 191.438 53.8874 192.44 55.6476C193.175 56.9483 193.577 58.411 193.609 59.905C192.088 60.8181 190.199 59.8206 188.505 59.2889C186.811 58.7572 185.106 58.7169 183.371 58.6692C182.486 58.6076 181.596 58.6569 180.723 58.8159C179.968 59.0186 179.232 59.2873 178.523 59.6189C177.357 60.1067 173.672 61.9512 172.59 60.7631C171.373 59.4173 173.796 56.7 174.798 55.8823Z" fill="#333333"/>
<path opacity="0.1" d="M175.531 64.9362C176.267 65.3401 177.078 65.5897 177.915 65.6696C181.366 66.1416 184.881 65.7472 188.142 64.5218C188.677 65.8749 189.975 66.8064 191.365 67.2464C192.755 67.6864 194.229 67.7084 195.685 67.7305C196.005 67.7665 196.328 67.7052 196.613 67.5544C197.262 67.1181 196.946 66.1133 196.569 65.4312L194.691 62.0282C194.137 61.0235 193.565 59.9967 192.707 59.2377C191.629 58.2842 190.199 57.8369 188.791 57.5545C185.458 56.8909 182.017 57.0051 178.736 57.8882C175.227 58.8159 170.72 62.0246 175.531 64.9362Z" fill="black"/>
<path d="M175.531 64.6427C176.267 65.0467 177.078 65.2962 177.915 65.3761C181.366 65.8482 184.881 65.4537 188.142 64.2284C188.677 65.5815 189.975 66.5129 191.365 66.9529C192.755 67.393 194.229 67.415 195.685 67.437C196.005 67.4731 196.328 67.4117 196.613 67.261C197.262 66.8246 196.946 65.8198 196.569 65.1378L194.691 61.7348C194.137 60.73 193.565 59.7033 192.707 58.9442C191.629 57.9908 190.199 57.5434 188.791 57.261C185.458 56.5974 182.017 56.7116 178.736 57.5947C175.227 58.5152 170.72 61.7348 175.531 64.6427Z" fill="#333333"/>
<path d="M197.023 73.891C197.671 73.891 198.197 72.9076 198.197 71.6945C198.197 70.4813 197.671 69.4979 197.023 69.4979C196.375 69.4979 195.85 70.4813 195.85 71.6945C195.85 72.9076 196.375 73.891 197.023 73.891Z" fill="#FDB797"/>
<path d="M170.368 73.891C171.016 73.891 171.541 72.9076 171.541 71.6945C171.541 70.4813 171.016 69.4979 170.368 69.4979C169.72 69.4979 169.194 70.4813 169.194 71.6945C169.194 72.9076 169.72 73.891 170.368 73.891Z" fill="#FDB797"/>
<path d="M180.525 87.8219C180.525 87.8219 163.481 85.167 166.998 111.529L169.048 119.087L174.915 118.852C174.915 118.852 171.109 110.051 173.448 104.206C175.788 98.3609 180.525 87.8219 180.525 87.8219Z" fill="#F55F44"/>
<path d="M186.862 87.8219C186.862 87.8219 203.906 85.167 200.39 111.529L198.34 119.087L192.473 118.852C192.473 118.852 196.279 110.051 193.939 104.206C191.6 98.3609 186.862 87.8219 186.862 87.8219Z" fill="#F55F44"/>
<path d="M172.271 123.245C174.051 123.245 175.494 121.802 175.494 120.022C175.494 118.242 174.051 116.799 172.271 116.799C170.491 116.799 169.048 118.242 169.048 120.022C169.048 121.802 170.491 123.245 172.271 123.245Z" fill="#FDB797"/>
<path d="M195.703 123.245C197.483 123.245 198.926 121.802 198.926 120.022C198.926 118.242 197.483 116.799 195.703 116.799C193.923 116.799 192.48 118.242 192.48 120.022C192.48 121.802 193.923 123.245 195.703 123.245Z" fill="#FDB797"/>
<path d="M175.953 163.96H177.086C178.058 163.96 178.991 164.346 179.679 165.034C180.366 165.722 180.753 166.654 180.753 167.627V168.632H172.271V167.627C172.271 167.144 172.366 166.666 172.552 166.22C172.737 165.774 173.008 165.37 173.35 165.029C173.692 164.688 174.098 164.418 174.545 164.235C174.991 164.051 175.47 163.958 175.953 163.96Z" fill="#333333"/>
<path d="M190.305 163.96H191.438C192.411 163.96 193.344 164.346 194.031 165.034C194.719 165.722 195.105 166.654 195.105 167.627V168.632H186.624V167.627C186.624 167.144 186.719 166.666 186.904 166.22C187.089 165.774 187.361 165.37 187.703 165.029C188.045 164.688 188.451 164.418 188.898 164.235C189.344 164.051 189.823 163.958 190.305 163.96Z" fill="#333333"/>
<path opacity="0.1" d="M173.151 101.863C173.151 101.863 171.978 108.012 174.031 110.664L173.151 101.863Z" fill="black"/>
<path opacity="0.1" d="M194.24 101.863C194.24 101.863 195.414 108.012 193.36 110.664L194.24 101.863Z" fill="black"/>
</g>
<defs>
<linearGradient id="paint0_linear" x1="85.0511" y1="209.281" x2="85.0511" y2="23.9573" gradientUnits="userSpaceOnUse">
<stop stop-color="#808080" stop-opacity="0.25"/>
<stop offset="0.54" stop-color="#808080" stop-opacity="0.12"/>
<stop offset="1" stop-color="#808080" stop-opacity="0.1"/>
</linearGradient>
<linearGradient id="paint1_linear" x1="51426.3" y1="50168.5" x2="51426.3" y2="17809.1" gradientUnits="userSpaceOnUse">
<stop stop-color="#808080" stop-opacity="0.25"/>
<stop offset="0.54" stop-color="#808080" stop-opacity="0.12"/>
<stop offset="1" stop-color="#808080" stop-opacity="0.1"/>
</linearGradient>
<linearGradient id="paint2_linear" x1="207264" y1="148082" x2="207264" y2="60223.7" gradientUnits="userSpaceOnUse">
<stop stop-color="#808080" stop-opacity="0.25"/>
<stop offset="0.54" stop-color="#808080" stop-opacity="0.12"/>
<stop offset="1" stop-color="#808080" stop-opacity="0.1"/>
</linearGradient>
<linearGradient id="paint3_linear" x1="25120.2" y1="60355.9" x2="25120.2" y2="17271.7" gradientUnits="userSpaceOnUse">
<stop stop-color="#808080" stop-opacity="0.25"/>
<stop offset="0.54" stop-color="#808080" stop-opacity="0.12"/>
<stop offset="1" stop-color="#808080" stop-opacity="0.1"/>
</linearGradient>
<clipPath id="clip0">
<rect width="345.432" height="273.412" fill="white" transform="translate(4.56757 23.9573)"/>
</clipPath>
</defs>
</svg>
