<svg width="341" height="397" viewBox="0 0 341 397" fill="none" xmlns="http://www.w3.org/2000/svg">
<path fill-rule="evenodd" clip-rule="evenodd" d="M158.628 1.06441C195.221 7.28196 207.865 53.4864 237.774 75.468C267.409 97.2488 314.028 95.8936 331.609 128.198C349.731 161.497 334.508 201.925 326.795 239.043C318.07 281.029 315.393 327.767 284.056 357.039C251.251 387.683 203.407 399.313 158.628 396.131C115.603 393.073 75.8117 370.792 45.516 340.089C18.2493 312.455 4.4421 274.418 0.429172 235.805C-3.03102 202.51 15.283 173.012 24.8176 140.925C34.6908 107.698 33.227 69.831 57.1897 44.7848C83.2819 17.5128 121.418 -5.25798 158.628 1.06441Z" fill="#F0F0F0" fill-opacity="0.16"/>
<g clip-path="url(#clip0)">
<path d="M219.217 24H27.176C25.387 24.002 23.672 24.7135 22.407 25.9785C21.1421 27.2434 20.4305 28.9585 20.4286 30.7474V290.263C20.4306 292.052 21.1421 293.767 22.4071 295.032C23.672 296.297 25.3871 297.008 27.176 297.01H219.217C221.006 297.008 222.721 296.297 223.986 295.032C225.251 293.767 225.963 292.052 225.965 290.263V30.7474C225.963 28.9585 225.251 27.2435 223.986 25.9785C222.721 24.7136 221.006 24.002 219.217 24Z" fill="#F2F2F2"/>
<path d="M33.1083 32.3044C31.8602 32.3256 30.6714 32.8408 29.8026 33.7371C28.9338 34.6334 28.4558 35.8377 28.4735 37.0858V283.924C28.4558 285.173 28.9338 286.377 29.8026 287.273C30.6714 288.169 31.8602 288.685 33.1083 288.706H213.285C214.533 288.685 215.722 288.169 216.591 287.273C217.46 286.377 217.938 285.173 217.92 283.924V37.0858C217.938 35.8377 217.46 34.6334 216.591 33.7371C215.722 32.8408 214.533 32.3256 213.285 32.3044H33.1083Z" fill="white"/>
<path d="M42.4874 43.7231C40.7701 43.7231 39.3732 45.2997 39.3732 47.2377V81.212C39.3732 83.1501 40.7701 84.7266 42.4874 84.7266H203.906C205.623 84.7266 207.02 83.1501 207.02 81.212V47.2377C207.02 45.2997 205.623 43.7231 203.906 43.7231H42.4874Z" fill="#E6E6E6"/>
<path d="M42.4874 101.206C41.6499 101.219 40.8518 101.563 40.268 102.164C39.6842 102.764 39.3624 103.572 39.3732 104.409V177.025C39.3624 177.862 39.6842 178.67 40.268 179.27C40.8518 179.871 41.6499 180.215 42.4874 180.228H203.906C204.744 180.215 205.542 179.871 206.125 179.27C206.709 178.67 207.031 177.862 207.02 177.025V104.409C207.031 103.572 206.709 102.764 206.125 102.164C205.542 101.563 204.744 101.219 203.906 101.206H42.4874Z" fill="#E6E6E6"/>
<path d="M187.038 48.5242H59.3559V55.7906H187.038V48.5242Z" fill="white"/>
<path d="M187.297 63.8357H59.6154V67.2094H187.297V63.8357Z" fill="white"/>
<path d="M187.297 69.8044H59.6154V73.1781H187.297V69.8044Z" fill="white"/>
<path d="M187.297 75.7734H59.6154V79.1471H187.297V75.7734Z" fill="white"/>
<path d="M135.219 180.358H193.979C194.353 180.358 194.719 180.247 195.03 180.039C195.341 179.832 195.583 179.536 195.726 179.191C195.869 178.845 195.907 178.465 195.834 178.098C195.761 177.731 195.581 177.394 195.316 177.129L157.709 139.522C157.354 139.168 156.873 138.969 156.372 138.969C155.87 138.969 155.389 139.168 155.034 139.522L145.682 148.874C145.314 149.242 144.877 149.535 144.395 149.734C143.914 149.934 143.398 150.036 142.877 150.036C142.356 150.036 141.84 149.934 141.359 149.734C140.877 149.535 140.44 149.242 140.072 148.874L110.78 119.582C110.425 119.228 109.944 119.029 109.442 119.029C108.941 119.029 108.46 119.228 108.105 119.582L50.8175 176.87C50.553 177.134 50.3729 177.471 50.2999 177.838C50.227 178.205 50.2645 178.585 50.4076 178.931C50.5508 179.277 50.7932 179.572 51.1043 179.78C51.4153 179.988 51.781 180.099 52.1551 180.099H135.294L135.219 180.358Z" fill="white"/>
<path d="M65.3248 125.6C69.3379 125.6 72.5912 122.347 72.5912 118.334C72.5912 114.321 69.3379 111.067 65.3248 111.067C61.3116 111.067 58.0583 114.321 58.0583 118.334C58.0583 122.347 61.3116 125.6 65.3248 125.6Z" fill="white"/>
<path d="M42.4874 197.227C41.6499 197.239 40.8518 197.584 40.268 198.185C39.6842 198.785 39.3624 199.593 39.3732 200.43V273.045C39.3624 273.883 39.6842 274.69 40.268 275.291C40.8518 275.892 41.6499 276.236 42.4874 276.249H203.906C204.744 276.236 205.542 275.892 206.125 275.291C206.709 274.69 207.031 273.883 207.02 273.045V200.43C207.031 199.593 206.709 198.785 206.125 198.185C205.542 197.584 204.744 197.239 203.906 197.227H42.4874Z" fill="#E6E6E6"/>
<path d="M135.219 276.379H193.979C194.353 276.379 194.719 276.268 195.03 276.06C195.341 275.852 195.583 275.557 195.726 275.211C195.869 274.865 195.907 274.485 195.834 274.118C195.761 273.751 195.581 273.414 195.316 273.15L157.709 235.543C157.354 235.189 156.873 234.99 156.372 234.99C155.87 234.99 155.389 235.189 155.034 235.543L145.682 244.894C145.314 245.263 144.877 245.555 144.395 245.755C143.914 245.954 143.398 246.057 142.877 246.057C142.356 246.057 141.84 245.954 141.358 245.755C140.877 245.555 140.44 245.263 140.071 244.894L110.78 215.603C110.425 215.249 109.944 215.05 109.442 215.05C108.941 215.05 108.46 215.249 108.105 215.603L50.8175 272.89C50.553 273.155 50.3729 273.492 50.3 273.859C50.227 274.226 50.2645 274.606 50.4076 274.951C50.5508 275.297 50.7932 275.593 51.1043 275.8C51.4153 276.008 51.781 276.119 52.1551 276.119H135.294L135.219 276.379Z" fill="white"/>
<path d="M65.3248 221.621C69.3379 221.621 72.5912 218.368 72.5912 214.355C72.5912 210.341 69.3379 207.088 65.3248 207.088C61.3116 207.088 58.0583 210.341 58.0583 214.355C58.0583 218.368 61.3116 221.621 65.3248 221.621Z" fill="white"/>
<path d="M94.65 83.6885C93.4116 83.6899 92.2242 84.1825 91.3485 85.0583C90.4728 85.934 89.9802 87.1213 89.9787 88.3598V347.875C89.9801 349.114 90.4727 350.301 91.3485 351.177C92.2242 352.053 93.4115 352.545 94.65 352.547H286.692C287.93 352.545 289.117 352.053 289.993 351.177C290.869 350.301 291.361 349.114 291.363 347.875V88.3598C291.361 87.1213 290.869 85.9339 289.993 85.0582C289.117 84.1825 287.93 83.6899 286.692 83.6885H94.65Z" fill="#E6E6E6"/>
<path d="M100.323 90.9551C99.0747 90.9762 97.886 91.4915 97.0171 92.3878C96.1483 93.2841 95.6704 94.4883 95.6881 95.7365V342.575C95.6704 343.823 96.1483 345.028 97.0171 345.924C97.886 346.82 99.0747 347.335 100.323 347.357H280.5C281.748 347.335 282.937 346.82 283.805 345.924C284.674 345.028 285.152 343.823 285.134 342.575V95.7365C285.152 94.4883 284.674 93.2841 283.805 92.3878C282.937 91.4915 281.748 90.9762 280.5 90.9551H100.323Z" fill="white"/>
<path d="M128.517 126.863C127.966 126.864 127.439 127.083 127.049 127.472C126.66 127.861 126.441 128.389 126.441 128.939V138.468C126.441 139.018 126.66 139.546 127.049 139.935C127.439 140.325 127.966 140.543 128.517 140.544H251.008C251.559 140.544 252.086 140.325 252.476 139.935C252.865 139.546 253.084 139.018 253.084 138.468V128.939C253.084 128.389 252.865 127.861 252.476 127.472C252.086 127.083 251.559 126.864 251.008 126.863H128.517Z" fill="#00C853"/>
<path d="M127.738 158.397C127.601 158.398 127.469 158.452 127.371 158.55C127.274 158.647 127.219 158.779 127.219 158.916V162.636C127.219 162.774 127.274 162.906 127.371 163.003C127.469 163.1 127.601 163.155 127.738 163.155H252.306C252.443 163.155 252.575 163.101 252.673 163.003C252.77 162.906 252.825 162.774 252.825 162.636V158.916C252.825 158.779 252.77 158.647 252.673 158.55C252.575 158.452 252.443 158.398 252.306 158.397H127.738Z" fill="#CCCCCC"/>
<path d="M127.738 170.488C127.601 170.488 127.469 170.543 127.371 170.64C127.274 170.738 127.219 170.87 127.219 171.007V174.727C127.219 174.865 127.274 174.997 127.371 175.094C127.469 175.191 127.601 175.246 127.738 175.246H252.306C252.443 175.246 252.575 175.191 252.673 175.094C252.77 174.997 252.825 174.865 252.825 174.727V171.007C252.825 170.87 252.77 170.738 252.673 170.64C252.575 170.543 252.443 170.488 252.306 170.488H127.738Z" fill="#CCCCCC"/>
<path d="M127.738 182.579C127.601 182.579 127.469 182.634 127.371 182.731C127.274 182.828 127.219 182.96 127.219 183.098V186.818C127.219 186.955 127.274 187.087 127.371 187.184C127.469 187.282 127.601 187.336 127.738 187.337H252.306C252.443 187.336 252.575 187.282 252.673 187.184C252.77 187.087 252.825 186.955 252.825 186.818V183.098C252.825 182.96 252.77 182.828 252.673 182.731C252.575 182.634 252.443 182.579 252.306 182.579H127.738Z" fill="#CCCCCC"/>
<path d="M127.479 206.731C127.341 206.731 127.209 206.786 127.112 206.883C127.015 206.98 126.96 207.112 126.96 207.25V210.969C126.96 211.107 127.015 211.239 127.112 211.336C127.209 211.433 127.341 211.488 127.479 211.488H252.046C252.184 211.488 252.316 211.434 252.413 211.336C252.51 211.239 252.565 211.107 252.565 210.969V207.25C252.565 207.112 252.51 206.98 252.413 206.883C252.316 206.786 252.184 206.731 252.046 206.731H127.479Z" fill="#CCCCCC"/>
<path d="M127.479 218.822C127.341 218.822 127.209 218.876 127.112 218.974C127.015 219.071 126.96 219.203 126.96 219.341V223.06C126.96 223.198 127.015 223.33 127.112 223.427C127.209 223.524 127.341 223.579 127.479 223.579H252.046C252.184 223.579 252.316 223.524 252.413 223.427C252.51 223.33 252.565 223.198 252.565 223.06V219.341C252.565 219.203 252.51 219.071 252.413 218.974C252.316 218.876 252.184 218.822 252.046 218.822H127.479Z" fill="#CCCCCC"/>
<path d="M127.479 230.912C127.341 230.912 127.209 230.967 127.112 231.064C127.015 231.161 126.96 231.293 126.96 231.431V235.151C126.96 235.288 127.015 235.42 127.112 235.518C127.209 235.615 127.341 235.67 127.479 235.67H252.046C252.184 235.67 252.316 235.615 252.413 235.518C252.51 235.42 252.565 235.288 252.565 235.151V231.431C252.565 231.293 252.51 231.161 252.413 231.064C252.316 230.967 252.184 230.912 252.046 230.912H127.479Z" fill="#CCCCCC"/>
<path d="M127.479 243.062C127.341 243.063 127.209 243.117 127.112 243.215C127.015 243.312 126.96 243.444 126.96 243.582V247.301C126.96 247.439 127.015 247.571 127.112 247.668C127.209 247.766 127.341 247.82 127.479 247.82H252.046C252.184 247.82 252.316 247.766 252.413 247.668C252.51 247.571 252.565 247.439 252.565 247.301V243.582C252.565 243.444 252.51 243.312 252.413 243.215C252.316 243.117 252.184 243.063 252.046 243.062H127.479Z" fill="#CCCCCC"/>
<path d="M127.479 255.153C127.341 255.153 127.209 255.208 127.112 255.306C127.015 255.403 126.96 255.535 126.96 255.672V259.392C126.96 259.53 127.015 259.662 127.112 259.759C127.209 259.856 127.341 259.911 127.479 259.911H252.046C252.184 259.911 252.316 259.856 252.413 259.759C252.51 259.662 252.565 259.53 252.565 259.392V255.672C252.565 255.535 252.51 255.403 252.413 255.305C252.316 255.208 252.184 255.153 252.046 255.153H127.479Z" fill="#CCCCCC"/>
<path d="M127.479 267.244C127.341 267.244 127.209 267.299 127.112 267.396C127.015 267.494 126.96 267.626 126.96 267.763V271.483C126.96 271.621 127.015 271.753 127.112 271.85C127.209 271.947 127.341 272.002 127.479 272.002H252.046C252.184 272.002 252.316 271.947 252.413 271.85C252.51 271.753 252.565 271.621 252.565 271.483V267.763C252.565 267.626 252.51 267.494 252.413 267.396C252.316 267.299 252.184 267.244 252.046 267.244H127.479Z" fill="#CCCCCC"/>
<path d="M127.479 279.395C127.341 279.395 127.209 279.45 127.112 279.547C127.015 279.644 126.96 279.776 126.96 279.914V283.634C126.96 283.771 127.015 283.903 127.112 284.001C127.209 284.098 127.341 284.153 127.479 284.153H252.046C252.184 284.153 252.316 284.098 252.413 284.001C252.51 283.903 252.565 283.771 252.565 283.634V279.914C252.565 279.776 252.51 279.644 252.413 279.547C252.316 279.45 252.184 279.395 252.046 279.395H127.479Z" fill="#CCCCCC"/>
<path d="M127.479 291.486C127.341 291.486 127.209 291.54 127.112 291.638C127.015 291.735 126.96 291.867 126.96 292.005V295.724C126.96 295.862 127.015 295.994 127.112 296.091C127.209 296.189 127.341 296.243 127.479 296.243H252.046C252.184 296.243 252.316 296.189 252.413 296.091C252.51 295.994 252.565 295.862 252.565 295.724V292.005C252.565 291.867 252.51 291.735 252.413 291.638C252.316 291.54 252.184 291.486 252.046 291.486H127.479Z" fill="#CCCCCC"/>
<path d="M127.479 303.576C127.341 303.577 127.209 303.631 127.112 303.729C127.015 303.826 126.96 303.958 126.96 304.095V307.815C126.96 307.953 127.015 308.085 127.112 308.182C127.209 308.28 127.341 308.334 127.479 308.334H252.046C252.184 308.334 252.316 308.28 252.413 308.182C252.51 308.085 252.565 307.953 252.565 307.815V304.095C252.565 303.958 252.51 303.826 252.413 303.729C252.316 303.631 252.184 303.577 252.046 303.576H127.479Z" fill="#CCCCCC"/>
<path d="M282.539 374.346C303.465 374.346 320.429 357.382 320.429 336.457C320.429 315.531 303.465 298.567 282.539 298.567C261.614 298.567 244.65 315.531 244.65 336.457C244.65 357.382 261.614 374.346 282.539 374.346Z" fill="#00C853"/>
<path d="M278.929 352.451L267.588 337.87L274.183 332.74L279.553 339.644L297.692 320.496L303.758 326.242L278.929 352.451Z" fill="white"/>
</g>
<defs>
<clipPath id="clip0">
<rect width="300" height="350.346" fill="white" transform="translate(20.4286 24)"/>
</clipPath>
</defs>
</svg>
