<svg width="1150" height="719" viewBox="0 0 1150 719" fill="none" xmlns="http://www.w3.org/2000/svg">
<path fill-rule="evenodd" clip-rule="evenodd" d="M547.343 34.8419C621.036 30.6466 692.261 -18.061 761.595 7.26109C839.245 35.6206 912.665 96.619 934.672 176.303C956.475 255.247 898.358 330.096 872.187 407.702C846.397 484.176 841.172 570.532 782.896 626.365C720.451 686.19 633.819 719.477 547.343 718.921C461.178 718.367 376.436 682.713 313.98 623.35C255.917 568.163 236.82 486.769 220.566 408.33C205.955 337.824 202.406 265.776 225.769 197.668C248.851 130.379 286.644 62.822 350.11 30.6866C410.249 0.235931 480.043 38.6732 547.343 34.8419Z" fill="#E0E0E0" fill-opacity="0.48"/>
<g clip-path="url(#clip0)">
<path d="M572.888 210.107L572.858 210.308L572.776 210.889L564.319 271.577L512.534 290.577L511.723 290.189L482.73 276.42L467.738 218.899L466.711 214.95L467.024 214.83L531.161 190.734L572.85 210.084L572.888 210.107Z" fill="#3D5AFE"/>
<path d="M511.723 290.189L482.73 276.42L466.711 214.95L467.024 214.83L508.809 232.459L511.723 290.189Z" fill="#3D5AFE"/>
<path opacity="0.2" d="M512.45 289.488L490.396 247.226L493.229 235.245L479.889 219.536L478.753 220.501L491.605 235.635L482.005 276.248L483.456 276.592L489.872 249.443L511.128 290.177L512.45 289.488Z" fill="black"/>
<path d="M572.888 210.852L572.776 210.889L508.809 233.205L467.738 218.899L466.711 214.95L467.024 214.83L531.161 190.734L572.85 210.084L572.858 210.308L572.888 210.852Z" fill="#3F3D56"/>
<path d="M509.926 234.322L496.887 224.264L499.867 213.087L537.122 199.675L562.456 201.165L572.515 209.734L573.259 211.969L509.926 234.322Z" fill="#3D5AFE"/>
<path d="M467.456 214.95L496.887 213.832L512.831 208.421L537.689 199.675L542.338 192.97L530.738 190.893L467.456 214.95Z" fill="#3D5AFE"/>
<path d="M526.093 202.96L510.747 208.346L511.24 209.751L526.586 204.366L526.093 202.96Z" fill="#CCCCCC"/>
<path d="M323.963 115.823L316.769 151.793L350.341 176.973L365.929 130.211L323.963 115.823Z" fill="#9F616A"/>
<path d="M350.941 148.796C368.821 148.796 383.315 134.302 383.315 116.422C383.315 98.5425 368.821 84.0483 350.941 84.0483C333.062 84.0483 318.567 98.5425 318.567 116.422C318.567 134.302 333.062 148.796 350.941 148.796Z" fill="#9F616A"/>
<path d="M280.798 361.713C280.946 372.158 326.436 488.402 320.12 503.538C310.164 513.715 288.748 567.885 279.598 582.335C278.4 582.335 272.405 600.32 272.405 600.32C272.405 600.32 286.793 623.102 302.381 613.509C321.98 567.412 371.065 541.701 371.933 481.62C374.302 500.6 381.296 622.426 381.296 622.426C381.296 622.426 379.954 622.996 410.152 625.889C414.84 555.182 433.999 434.888 391.107 359.314C377.919 353.32 280.798 361.713 280.798 361.713Z" fill="#2F2E41"/>
<path d="M381.294 620.055C379.892 622.751 369.839 647.634 378.987 650.129C389.537 653.006 399.764 648.974 399.764 648.974C399.764 648.974 418.232 654.746 429.534 647.411C434.809 642.136 433.61 637.34 431.093 633.864C429.814 632.151 428.176 630.738 426.294 629.724C424.413 628.709 422.332 628.118 420.198 627.991C414.463 627.582 412.641 626.519 411.984 623.891C411.025 620.055 381.294 620.055 381.294 620.055Z" fill="#2F2E41"/>
<path d="M282.636 598.326C282.636 598.326 256.865 606.464 262.291 615.959C265.814 621.843 270.959 626.587 277.109 629.623C277.109 629.623 282.484 651.781 297.404 651.781C304.864 651.781 307.407 647.542 308.085 643.304C308.392 641.188 308.233 639.031 307.619 636.983C307.006 634.935 305.953 633.046 304.534 631.448C300.767 627.103 300.231 625.063 301.625 622.74C303.659 619.35 282.636 598.326 282.636 598.326Z" fill="#2F2E41"/>
<path d="M397.109 365.223C397.109 365.223 392.307 374.815 373.124 371.214C353.94 367.624 278.405 371.214 278.405 371.214C278.405 371.214 282.595 285.487 273.003 233.926C263.411 182.366 301.179 152.99 301.179 152.99L313.171 140.997C325.164 139.808 350.489 177.022 350.489 177.022C358.822 178.418 366.602 213.842 373.239 247.362C373.631 249.278 374.001 251.171 374.37 253.064C377.429 268.693 381.688 286.087 384.239 301.704C384.424 302.813 384.597 303.909 384.758 305.006C387.791 325.285 391.914 345.387 397.109 365.223Z" fill="#E6E6E6"/>
<path d="M313.068 96.2642C313.068 96.2642 307.015 82.9481 322.752 76.8953C322.752 76.8953 336.069 55.1052 362.701 69.6319C362.701 69.6319 380.859 76.8953 380.859 96.2642C380.859 115.633 386.912 119.265 386.912 119.265C386.912 119.265 377.898 110.018 375.477 102.754C373.056 95.491 354.227 93.8431 346.964 101.106C339.7 108.37 321.542 107.159 321.542 107.159L322.752 133.792C322.752 133.792 316.7 118.054 314.279 118.054C311.857 118.054 309.436 96.2642 313.068 96.2642Z" fill="#2F2E41"/>
<path opacity="0.2" d="M384.239 301.704C355.636 286.157 309.305 252.06 294.357 233.615C274.654 209.318 296.146 190.85 296.146 190.85C320.512 175.475 349.646 228.224 349.646 228.224L373.239 247.362C373.631 249.278 374.001 251.171 374.37 253.064C377.429 268.693 381.688 286.087 384.239 301.704Z" fill="black"/>
<path d="M469.623 283.787C469.623 283.787 512.146 301.05 519.145 281.644C526.144 262.239 485.573 262.572 485.573 262.572L469.645 264.829L469.623 283.787Z" fill="#9F616A"/>
<path d="M290.696 182.953C290.696 182.953 269.214 201.432 288.903 225.721C308.592 250.01 399.078 301.907 399.078 301.907L458.018 285.973L474.698 289.025L477.843 257.71L453.27 260.109L390.893 246.827L351.117 214.553C351.117 214.553 315.056 167.587 290.696 182.953Z" fill="#E6E6E6"/>
<path opacity="0.2" d="M368.954 405.562L372.712 493.379L363.182 405.562H368.954Z" fill="black"/>
<path d="M774.716 342.744L740.598 350.649C737.959 351.26 735.185 350.819 732.866 349.418C730.548 348.017 728.866 345.767 728.18 343.146C727.782 341.626 727.733 340.036 728.037 338.495C728.341 336.953 728.99 335.501 729.936 334.246C730.881 332.991 732.099 331.967 733.496 331.249C734.894 330.532 736.436 330.14 738.007 330.104L770.962 329.337L774.716 342.744Z" fill="#FFB9B9"/>
<path d="M771.094 347.751L763.516 325.019L808.943 309.502L796.886 203.327C818.593 207.274 828.924 224.343 827.957 246.385L833.833 318.836L771.094 347.751Z" fill="#3F3D56"/>
<path d="M802.48 179.918H876.696V143.01C876.723 133.042 872.817 123.466 865.827 116.36C862.413 112.859 858.332 110.079 853.824 108.182C849.317 106.286 844.475 105.312 839.586 105.319C829.82 105.337 820.454 109.198 813.513 116.067C806.571 122.935 802.612 132.26 802.491 142.025C802.486 142.363 802.48 142.684 802.48 143.01L802.48 179.918Z" fill="#2F2E41"/>
<path d="M907.728 613.638L884.004 610.915L855.613 419.178L796.886 611.693L771.217 612.471L800.386 375.619L796.108 321.559L868.836 298.612C920.347 334.571 919.281 461.579 907.728 613.638Z" fill="#2F2E41"/>
<path d="M833.056 172.602C848.521 172.602 861.058 160.065 861.058 144.6C861.058 129.135 848.521 116.598 833.056 116.598C817.59 116.598 805.053 129.135 805.053 144.6C805.053 160.065 817.59 172.602 833.056 172.602Z" fill="#FFB9B9"/>
<path d="M861.058 195.16L813.61 207.605C821.604 192.232 824.162 177.88 819.832 164.824L853.28 159.379C851.13 171.863 853.919 184.695 861.058 195.16Z" fill="#FFB9B9"/>
<path d="M877.004 309.113C850.391 326.038 819.391 345.481 796.497 326.615L785.607 273.722C776.952 266.012 780.79 242.224 792.491 208.316C793.234 206.164 794.458 204.209 796.069 202.6C797.679 200.991 799.636 199.769 801.789 199.029L819.832 192.826C827.829 199.551 840.937 195.54 856.391 186.603L874.281 191.271L882.06 249.609C870.831 266.432 872.793 288.832 877.004 309.113Z" fill="#3F3D56"/>
<path d="M854.834 331.854L820.716 339.759C818.077 340.371 815.303 339.929 812.984 338.528C810.665 337.127 808.984 334.877 808.298 332.256C807.9 330.737 807.851 329.146 808.155 327.605C808.459 326.063 809.108 324.611 810.053 323.356C810.999 322.101 812.216 321.077 813.614 320.359C815.012 319.642 816.554 319.25 818.124 319.214L851.08 318.447L854.834 331.854Z" fill="#FFB9B9"/>
<path d="M903.605 650.295C899.62 652.114 896.283 640.843 892.922 644.146C883.521 653.385 860.968 651.314 860.968 651.314C860.211 651.071 859.511 650.676 858.911 650.154C858.31 649.632 857.822 648.994 857.476 648.278C857.13 647.562 856.932 646.783 856.896 645.989C856.859 645.194 856.985 644.4 857.264 643.656C857.598 642.764 858.144 641.968 858.854 641.334C859.564 640.7 860.418 640.249 861.341 640.018L871.339 637.518L887.038 609.911L904.146 607.745L904.578 608.452C907.886 613.783 910.018 619.757 910.833 625.977C911.648 632.197 911.128 638.52 909.305 644.523C907.883 649.081 905.946 649.227 903.605 650.295Z" fill="#2F2E41"/>
<path d="M790.818 650.295C786.833 652.114 783.496 640.843 780.135 644.146C770.734 653.385 748.181 651.314 748.181 651.314C747.424 651.071 746.724 650.676 746.124 650.154C745.523 649.632 745.035 648.994 744.689 648.278C744.343 647.562 744.145 646.783 744.109 645.989C744.072 645.194 744.198 644.4 744.477 643.656C744.811 642.764 745.357 641.968 746.067 641.334C746.777 640.7 747.631 640.249 748.554 640.018L758.552 637.518L774.251 609.911L791.359 607.745L791.791 608.452C795.099 613.783 797.231 619.757 798.046 625.977C798.862 632.197 798.341 638.52 796.519 644.523C795.096 649.081 793.159 649.227 790.818 650.295Z" fill="#2F2E41"/>
<path d="M865.883 121.244L858.831 143.682L797.856 142.598C798.064 134.748 800.719 127.158 805.451 120.89C810.182 114.622 816.753 109.988 824.246 107.636C831.739 105.284 839.779 105.331 847.244 107.771C854.709 110.21 861.225 114.921 865.883 121.244H865.883Z" fill="#2F2E41"/>
<path d="M851.211 336.861L843.634 314.129L889.06 298.612L871.877 190.136C882.374 192.045 891.824 197.691 898.479 206.03C905.133 214.369 908.542 224.837 908.074 235.496L913.951 307.947L851.211 336.861Z" fill="#3F3D56"/>
<path d="M742.712 275.577L695.465 285.737L685.812 239.252L703.594 215.374L719.596 212.326L737.377 230.361L742.712 275.577Z" fill="#CCCCCC"/>
<path d="M720.867 277.603H692.415L688.536 258.454L684.289 237.47L690.637 228.328L702.837 232.137L716.042 250.432L719.355 269.073L719.586 270.401L720.867 277.603Z" fill="#E6E6E6"/>
<path d="M768.622 266.431L735.854 270.242L741.697 228.583L754.905 216.644L766.336 219.438L773.957 236.966L768.622 266.431Z" fill="#CCCCCC"/>
<path d="M772.935 241.787L769.888 258.558L759.985 315.705L721.883 327.906L720.567 327.19L700.033 315.959L688.479 258.431L688.536 258.454L719.089 270.747L719.355 269.073L719.54 267.862L721.883 252.972L732.294 241.787L767.095 233.407L772.935 241.787Z" fill="#E6E6E6"/>
<path d="M748.809 240.014C753.298 240.014 756.937 236.374 756.937 231.885C756.937 227.396 753.298 223.757 748.809 223.757C744.319 223.757 740.68 227.396 740.68 231.885C740.68 236.374 744.319 240.014 748.809 240.014Z" fill="#E6E6E6"/>
<path d="M728.824 236.08L710.28 239.382L710.37 239.883L728.913 236.581L728.824 236.08Z" fill="white"/>
<path d="M720.567 327.19L700.033 315.959L688.479 258.431L688.536 258.454L684.289 237.47L690.637 228.328L702.837 232.137L716.042 250.432L719.355 269.073L719.54 267.861L719.586 270.401L719.713 277.603L720.567 327.19Z" fill="#F2F2F2"/>
<path d="M700.283 316.031L699.791 315.899L709.92 277.917L698.322 262.627L698.727 262.32L710.475 277.808L700.283 316.031Z" fill="#CCCCCC"/>
<path d="M706.001 294.347L705.544 294.568L721.654 328.014L722.112 327.794L706.001 294.347Z" fill="#CCCCCC"/>
<path opacity="0.2" d="M770.936 255.077L769.029 265.617L768.932 265.627L760.392 314.896L722.289 327.089L722.061 327.198L721.908 326.881L700.444 315.15L700.197 315.084L700.329 314.586L688.886 257.615L688.944 257.638L687.677 251.384L688.624 250.02L691.553 245.803L703.746 249.614L716.955 267.903L717.148 268.99L718.535 276.793L719.091 279.928L720.267 286.55L721.385 279.435L721.786 276.875L722.797 270.443L733.212 259.266L737.843 258.151L741.066 257.374L745.502 256.307C744.126 255.471 743.03 254.245 742.351 252.785C741.673 251.326 741.444 249.697 741.692 248.107C741.94 246.516 742.655 245.036 743.746 243.852C744.837 242.668 746.254 241.835 747.819 241.458C749.384 241.081 751.026 241.177 752.536 241.734C754.046 242.291 755.357 243.284 756.302 244.587C757.248 245.889 757.785 247.444 757.846 249.052C757.907 250.661 757.489 252.251 756.645 253.622L768.013 250.884L770.814 254.905L770.936 255.077Z" fill="black"/>
<path d="M721.781 297.623H693.331L685.203 257.488L691.553 248.343L703.746 252.153L716.955 270.442L721.781 297.623Z" fill="#E6E6E6"/>
<path d="M760.9 335.726L722.797 347.918L700.951 335.98L689.394 278.445L720.004 290.764L722.797 272.983L733.212 261.806L768.013 253.424L773.855 261.806L770.807 278.572L760.9 335.726Z" fill="#E6E6E6"/>
<path d="M749.723 260.028C754.213 260.028 757.852 256.389 757.852 251.9C757.852 247.41 754.213 243.771 749.723 243.771C745.234 243.771 741.595 247.41 741.595 251.9C741.595 256.389 745.234 260.028 749.723 260.028Z" fill="#E6E6E6"/>
<path d="M721.502 346.813L700.968 335.582L689.413 278.054L689.471 278.077L685.224 257.092L691.572 247.951L703.772 251.76L716.977 270.055L720.29 288.696L720.475 287.484L720.521 290.023L720.648 297.226L721.502 346.813Z" fill="#F2F2F2"/>
<path d="M701.197 336.045L700.707 335.914L710.835 297.931L699.236 282.641L699.641 282.334L711.391 297.823L701.197 336.045Z" fill="#CCCCCC"/>
<path d="M706.916 314.362L706.458 314.582L722.569 348.029L723.026 347.808L706.916 314.362Z" fill="#CCCCCC"/>
<path d="M1040.51 601.476L993.264 611.637L983.61 565.152L1001.39 541.274L1017.39 538.225L1035.18 556.261L1040.51 601.476Z" fill="#CCCCCC"/>
<path d="M1018.67 603.503H990.213L986.335 584.354L982.087 563.37L988.435 554.228L1000.64 558.037L1013.84 576.332L1017.15 594.973L1017.38 596.301L1018.67 603.503Z" fill="#E6E6E6"/>
<path d="M1066.42 592.331L1033.65 596.143L1039.49 554.483L1052.7 542.545L1064.13 545.338L1071.76 562.865L1066.42 592.331Z" fill="#CCCCCC"/>
<path d="M1070.73 567.687L1067.69 584.458L1057.78 641.605L1019.68 653.806L1018.37 653.09L997.831 641.859L986.277 584.331L986.335 584.354L1016.89 596.647L1017.15 594.973L1017.34 593.761L1019.68 578.871L1030.09 567.687L1064.89 559.307L1070.73 567.687Z" fill="#E6E6E6"/>
<path d="M1046.61 565.914C1051.1 565.914 1054.74 562.275 1054.74 557.785C1054.74 553.296 1051.1 549.657 1046.61 549.657C1042.12 549.657 1038.48 553.296 1038.48 557.785C1038.48 562.275 1042.12 565.914 1046.61 565.914Z" fill="#E6E6E6"/>
<path d="M1026.62 561.981L1008.08 565.283L1008.17 565.783L1026.71 562.481L1026.62 561.981Z" fill="white"/>
<path d="M1018.37 653.09L997.831 641.859L986.277 584.331L986.335 584.354L982.087 563.37L988.435 554.228L1000.64 558.037L1013.84 576.332L1017.15 594.973L1017.34 593.761L1017.38 596.301L1017.51 603.503L1018.37 653.09Z" fill="#F2F2F2"/>
<path d="M998.081 641.931L997.59 641.8L1007.72 603.817L996.12 588.527L996.526 588.22L1008.27 603.708L998.081 641.931Z" fill="#CCCCCC"/>
<path d="M1003.8 620.247L1003.34 620.468L1019.45 653.914L1019.91 653.694L1003.8 620.247Z" fill="#CCCCCC"/>
<path d="M1133.87 649.373H1102.71L1098.09 589.352H1138.49L1133.87 649.373Z" fill="#E6E6E6"/>
<path d="M1139.07 613.592H1097.51V622.826H1139.07V613.592Z" fill="#F2F2F2"/>
<path d="M1149.74 593.661L1143.1 591.704L1143.01 589.272L1113.49 580.575L1112.1 582.572L1105.45 580.616L1101.28 586.606L1150 600.957L1149.74 593.661Z" fill="#CCCCCC"/>
<path d="M172.361 573.618L172.331 573.819L172.249 574.401L163.791 635.09L112.007 654.09L111.195 653.702L82.2027 639.933L67.2112 582.41L66.1839 578.462L66.4967 578.343L130.634 554.247L172.322 573.596L172.361 573.618Z" fill="#006064"/>
<path d="M111.195 653.702L82.2027 639.933L66.1839 578.462L66.4967 578.343L108.282 595.972L111.195 653.702Z" fill="#006064"/>
<path opacity="0.2" d="M111.923 652.999L89.8693 610.737L92.7019 598.757L79.3621 583.048L78.2263 584.012L91.0778 599.147L81.4779 639.761L82.9288 640.104L89.3453 612.956L110.601 653.689L111.923 652.999Z" fill="black"/>
<path d="M172.361 574.364L172.249 574.401L108.282 596.716L67.2112 582.41L66.1839 578.462L66.4967 578.343L130.634 554.247L172.322 573.597L172.331 573.819L172.361 574.364Z" fill="#3F3D56"/>
<path d="M109.399 597.835L96.3597 587.775L99.34 576.599L136.595 563.187L161.928 564.678L171.988 573.246L172.732 575.481L109.399 597.835Z" fill="#006064"/>
<path d="M66.9284 578.462L96.3597 577.344L112.303 571.932L137.162 563.187L141.811 556.481L130.211 554.406L66.9284 578.462Z" fill="#006064"/>
<path d="M125.566 566.472L110.22 571.857L110.713 573.263L126.059 567.878L125.566 566.472Z" fill="#CCCCCC"/>
<path d="M41.5533 650.754H10.3883L5.77129 590.733H46.1703L41.5533 650.754Z" fill="#E91E63"/>
<path d="M46.7474 614.972H5.19416V624.206H46.7474V614.972Z" fill="#E6E6E6"/>
<path d="M48.4788 587.27H41.5532L40.7834 584.961H10.0039L9.23406 587.27H2.30851L0 594.195H50.7873L48.4788 587.27Z" fill="#3F3D56"/>
<path d="M933.03 650.046H233.44V652.355H933.03V650.046Z" fill="#3F3D56"/>
</g>
<defs>
<clipPath id="clip0">
<rect width="1150" height="589.451" fill="white" transform="translate(0 64.6384)"/>
</clipPath>
</defs>
</svg>
