<svg width="307" height="92" viewBox="0 0 307 92" fill="none" xmlns="http://www.w3.org/2000/svg">
<path d="M45.9978 0.151611C20.671 0.151611 0.13855 20.6835 0.13855 46.0103C0.13855 71.3383 20.671 91.8685 45.9978 91.8685C71.3274 91.8685 91.8576 71.3383 91.8576 46.0103C91.8576 20.6851 71.3274 0.153802 45.9973 0.153802L45.9978 0.151611ZM67.0286 66.293C66.2071 67.6402 64.4438 68.0673 63.0967 67.2404C52.3294 60.6635 38.7747 59.174 22.8116 62.8211C21.2734 63.1716 19.74 62.2078 19.3896 60.669C19.0374 59.1302 19.9974 57.5969 21.5395 57.2464C39.0085 53.2553 53.993 54.9738 66.0812 62.3611C67.4283 63.188 67.8555 64.9459 67.0286 66.293ZM72.6417 53.8062C71.6067 55.4885 69.4052 56.0197 67.7241 54.9847C55.3971 47.4079 36.6067 45.2135 22.0263 49.6394C20.1354 50.2106 18.1382 49.1449 17.5643 47.2573C16.9948 45.3663 18.061 43.373 19.9487 42.798C36.6034 37.7446 57.3083 40.1924 71.4643 48.8914C73.1455 49.9264 73.6767 52.1278 72.6417 53.8068V53.8062ZM73.1236 40.8036C58.3433 32.0247 33.9579 31.2175 19.8463 35.5004C17.5802 36.1877 15.1838 34.9084 14.4971 32.6424C13.8104 30.3753 15.0885 27.9805 17.3562 27.2916C33.5554 22.374 60.4845 23.3241 77.5012 33.426C79.5439 34.6357 80.212 37.2681 79.0017 39.3036C77.797 41.3419 75.1574 42.0138 73.1258 40.8036H73.1236ZM124.906 42.4859C116.988 40.5977 115.58 39.2724 115.58 36.4878C115.58 33.857 118.056 32.0866 121.741 32.0866C125.312 32.0866 128.849 33.431 132.562 36.1986C132.672 36.2824 132.814 36.3158 132.951 36.2939C133.093 36.2731 133.214 36.197 133.296 36.0825L137.162 30.6326C137.321 30.4081 137.277 30.0987 137.064 29.9273C132.644 26.3826 127.672 24.6592 121.856 24.6592C113.308 24.6592 107.333 29.7899 107.333 37.1307C107.333 45.0027 112.486 47.7901 121.391 49.9417C128.964 51.6869 130.246 53.1491 130.246 55.7623C130.246 58.6592 127.661 60.4609 123.499 60.4609C118.877 60.4609 115.104 58.9002 110.887 55.253C110.783 55.16 110.641 55.1216 110.51 55.1271C110.367 55.138 110.241 55.2038 110.154 55.3078L105.816 60.4664C105.636 60.6854 105.658 61.003 105.866 61.1892C110.772 65.5702 116.807 67.8811 123.324 67.8811C132.535 67.8811 138.487 62.8485 138.487 55.0559C138.504 48.4806 134.566 44.839 124.923 42.493L124.906 42.4859ZM159.33 34.6768C155.338 34.6768 152.063 36.2496 149.358 39.4723V35.8449C149.358 35.5585 149.128 35.3252 148.843 35.3252H141.751C141.466 35.3252 141.236 35.5585 141.236 35.8449V76.1502C141.236 76.435 141.466 76.6704 141.751 76.6704H148.843C149.128 76.6704 149.358 76.435 149.358 76.1502V63.429C152.063 66.4573 155.338 67.9414 159.33 67.9414C166.75 67.9414 174.263 62.2297 174.263 51.3107C174.274 40.3896 166.761 34.6763 159.335 34.6763L159.33 34.6768ZM166.016 51.3107C166.016 56.8685 162.594 60.7511 157.687 60.7511C152.84 60.7511 149.182 56.6933 149.182 51.3107C149.182 45.9276 152.84 41.8709 157.687 41.8709C162.511 41.8703 166.016 45.8395 166.016 51.3102V51.3107ZM193.512 34.6768C183.956 34.6768 176.47 42.0346 176.47 51.4296C176.47 60.7238 183.907 68.0016 193.397 68.0016C202.986 68.0016 210.494 60.669 210.494 51.3107C210.494 41.9842 203.035 34.6779 193.512 34.6779V34.6768ZM193.512 60.8059C188.43 60.8059 184.597 56.7207 184.597 51.308C184.597 45.8707 188.299 41.9251 193.397 41.9251C198.512 41.9251 202.367 46.0087 202.367 51.4268C202.367 56.863 198.643 60.8059 193.512 60.8059ZM230.898 35.3252H223.095V27.3486C223.095 27.0627 222.865 26.8294 222.58 26.8294H215.488C215.203 26.8294 214.968 27.0627 214.968 27.3486V35.3252H211.562C211.277 35.3252 211.047 35.5585 211.047 35.8449V41.9382C211.047 42.2241 211.277 42.4579 211.562 42.4579H214.968V58.2266C214.968 64.5954 218.139 67.8264 224.398 67.8264C226.939 67.8264 229.047 67.3007 231.035 66.1726C231.199 66.085 231.298 65.9097 231.298 65.7235V59.9188C231.298 59.7435 231.205 59.5738 231.051 59.4807C230.898 59.3821 230.706 59.3766 230.548 59.4588C229.184 60.1433 227.864 60.4609 226.386 60.4609C224.113 60.4609 223.095 59.4259 223.095 57.1149V42.4607H230.898C231.183 42.4607 231.413 42.2274 231.413 41.941V35.8482C231.424 35.5618 231.194 35.3285 230.904 35.3285L230.898 35.3252ZM258.082 35.3564V34.3767C258.082 31.4946 259.188 30.2093 261.663 30.2093C263.142 30.2093 264.33 30.5029 265.661 30.9464C265.825 30.9979 265.995 30.9722 266.126 30.8741C266.263 30.7761 266.34 30.6189 266.34 30.4525V24.4779C266.34 24.2496 266.198 24.0475 265.973 23.9802C264.571 23.5623 262.775 23.1335 260.081 23.1335C253.537 23.1335 250.07 26.8212 250.07 33.794V35.2945H246.664C246.379 35.2945 246.144 35.5278 246.144 35.8137V41.9382C246.144 42.2241 246.379 42.4579 246.664 42.4579H250.07V66.7749C250.07 67.0652 250.306 67.2952 250.59 67.2952H257.677C257.967 67.2952 258.197 67.0652 258.197 66.7749V42.4596H264.818L274.96 66.7749C273.81 69.3269 272.676 69.8361 271.132 69.8361C269.883 69.8361 268.563 69.4638 267.222 68.7245C267.096 68.6588 266.942 68.6478 266.811 68.6861C266.674 68.7354 266.559 68.834 266.504 68.9654L264.1 74.239C263.985 74.4909 264.084 74.7811 264.325 74.9126C266.833 76.2707 269.095 76.8512 271.893 76.8512C277.128 76.8512 280.025 74.4088 282.571 67.8483L294.871 36.0661C294.937 35.9062 294.915 35.7255 294.816 35.5837C294.723 35.4429 294.564 35.358 294.395 35.358H287.013C286.788 35.358 286.591 35.4988 286.52 35.7063L278.957 57.3011L270.677 35.6921C270.6 35.4911 270.409 35.358 270.195 35.358H258.082V35.3564ZM242.321 35.3252H235.23C234.945 35.3252 234.71 35.5585 234.71 35.8449V66.7749C234.71 67.0652 234.945 67.2952 235.23 67.2952H242.321C242.606 67.2952 242.842 67.0652 242.842 66.7749V35.8471C242.842 35.5607 242.612 35.3274 242.321 35.3274V35.3252ZM238.817 21.241C236.007 21.241 233.729 23.5147 233.729 26.3234C233.729 29.1338 236.007 31.4103 238.817 31.4103C241.626 31.4103 243.899 29.1338 243.899 26.3234C243.899 23.5152 241.62 21.241 238.817 21.241ZM300.928 45.2705C298.124 45.2705 295.939 43.017 295.939 40.2806C295.939 37.5441 298.151 35.2649 300.955 35.2649C303.759 35.2649 305.944 37.5179 305.944 40.2521C305.944 42.9886 303.731 45.2705 300.928 45.2705ZM300.955 35.7611C298.398 35.7611 296.465 37.7928 296.465 40.2806C296.465 42.7673 298.387 44.7716 300.928 44.7716C303.485 44.7716 305.418 42.7416 305.418 40.2521C305.418 37.7654 303.496 35.7611 300.955 35.7611ZM302.061 40.7652L303.474 42.741H302.28L301.01 40.9284H299.92V42.741H298.923V37.5036H301.256C302.477 37.5036 303.277 38.1263 303.277 39.1744C303.282 40.0331 302.784 40.5577 302.067 40.7652H302.061ZM301.218 38.4023H299.92V40.0588H301.218C301.864 40.0588 302.253 39.7417 302.253 39.2297C302.253 38.6909 301.864 38.4023 301.218 38.4023Z" fill="#E0E0E0"/>
</svg>
