<svg width="350" height="333" viewBox="0 0 350 333" fill="none" xmlns="http://www.w3.org/2000/svg">
<path fill-rule="evenodd" clip-rule="evenodd" d="M163.8 0.893631C195.819 6.11362 206.882 44.9048 233.052 63.3596C258.983 81.6458 299.775 80.508 315.158 107.629C331.014 135.586 317.694 169.528 310.945 200.69C303.311 235.939 300.969 275.179 273.549 299.755C244.844 325.482 202.981 335.245 163.8 332.574C126.153 330.007 91.3353 311.3 64.8265 285.523C40.9681 262.324 28.8868 230.389 25.3755 197.971C22.3479 170.019 38.3727 145.254 46.7154 118.315C55.3545 90.4185 54.0736 58.627 75.041 37.5993C97.8717 14.703 131.241 -4.41437 163.8 0.893631Z" fill="#F8BBD0" fill-opacity="0.16"/>
<g clip-path="url(#clip0)">
<path d="M80.1003 285.378C109.662 285.378 133.627 282.603 133.627 279.179C133.627 275.756 109.662 272.98 80.1003 272.98C50.5383 272.98 26.5736 275.756 26.5736 279.179C26.5736 282.603 50.5383 285.378 80.1003 285.378Z" fill="#F2F2F2"/>
<path d="M192.848 285.378C222.41 285.378 246.375 282.603 246.375 279.179C246.375 275.756 222.41 272.98 192.848 272.98C163.286 272.98 139.321 275.756 139.321 279.179C139.321 282.603 163.286 285.378 192.848 285.378Z" fill="#F2F2F2"/>
<path d="M262.573 169.334L267.254 142.232L208.812 130.338L211.211 61.2048H182.61L180.412 124.559L101.739 108.549L103.382 61.2048H74.7815L73.3392 102.769L15.8582 91.0714L11.1774 118.174L72.3725 130.627L70.5079 184.36L4.6809 170.964L6.10352e-05 198.066L69.5411 212.218L67.2204 279.093H95.8213L97.9414 217.998L176.613 234.008L175.049 279.093H203.65L205.014 239.787L251.396 249.226L256.077 222.124L205.981 211.929L207.845 158.197L262.573 169.334ZM177.58 206.15L98.9081 190.139L100.773 136.407L179.445 152.417L177.58 206.15Z" fill="#3F3D56"/>
<path opacity="0.2" d="M185.47 206.15L187.335 152.417L108.663 136.407L108.607 138.001L179.445 152.417L177.635 204.555L185.47 206.15Z" fill="black"/>
<path opacity="0.2" d="M188.302 124.559L190.5 61.2047H182.61L180.467 122.964L188.302 124.559Z" fill="black"/>
<path opacity="0.2" d="M215.735 158.197L215.68 159.791L262.573 169.334L262.841 167.783L215.735 158.197Z" fill="black"/>
<path opacity="0.2" d="M81.2292 102.769L82.6714 61.2047H74.7814L73.3946 101.175L81.2292 102.769Z" fill="black"/>
<path opacity="0.2" d="M212.904 239.787L212.848 241.382L251.396 249.226L251.664 247.675L212.904 239.787Z" fill="black"/>
<path opacity="0.2" d="M105.831 217.998L105.776 219.592L176.613 234.008L175.049 279.093H182.939L184.503 234.008L105.831 217.998Z" fill="black"/>
<path opacity="0.2" d="M70.563 182.765L78.3976 184.36L80.2623 130.627L19.0673 118.174L23.48 92.6225L15.8583 91.0713L11.1772 118.174L72.3723 130.627L70.563 182.765Z" fill="black"/>
<path opacity="0.2" d="M7.89006 198.066L12.3028 172.515L4.68074 170.964L0 198.066L69.541 212.218L67.2204 279.093H75.1101L77.4311 212.218L7.89006 198.066Z" fill="black"/>
<path d="M307.649 62.9863H278.627V110.596H307.649V62.9863Z" fill="#2F2E41"/>
<path d="M313.449 60.9867C310.313 69.9045 305.505 78.03 295.706 78.03C285.906 78.03 278.515 70.3844 277.962 60.9867C277.257 48.9781 285.68 43.8936 295.706 43.9434C307.549 44.0021 317.17 50.4034 313.449 60.9867Z" fill="#2F2E41"/>
<path d="M283.864 127.907L273.616 164.937C273.616 164.937 259.953 168.218 261.416 171.499C262.88 174.781 277.52 169.156 277.52 169.156L290.696 138.219L283.864 127.907Z" fill="#FFB9B9"/>
<path d="M292.16 249.779C292.16 249.779 301.431 258.685 295.575 264.779H307.775L299.967 246.029L292.16 249.779Z" fill="#FFB9B9"/>
<path d="M301.719 264.48C301.719 264.48 301.719 260.63 297.811 262.94C293.902 265.25 281.307 271.409 281.307 271.409C281.307 271.409 272.621 276.028 285.216 276.798C297.811 277.568 309.971 274.873 309.971 273.334C309.971 271.794 308.668 264.421 308.668 264.421C308.668 264.421 306.062 267.175 301.719 264.48Z" fill="#2F2E41"/>
<path d="M303.383 257.279L302.895 272.747L312.167 274.153V259.154L303.383 257.279Z" fill="#FFB9B9"/>
<path d="M294.6 81.5014C301.876 81.5014 307.775 75.8351 307.775 68.8454C307.775 61.8557 301.876 56.1895 294.6 56.1895C287.323 56.1895 281.424 61.8557 281.424 68.8454C281.424 75.8351 287.323 81.5014 294.6 81.5014Z" fill="#FFB9B9"/>
<path d="M289.964 78.9235C289.964 78.9235 296.308 92.9857 291.428 97.6731C286.548 102.36 298.747 97.6731 298.747 97.6731C298.747 97.6731 305.091 88.767 309.971 88.2983C309.971 88.2983 302.651 84.5484 303.139 74.7048L289.964 78.9235Z" fill="#FFB9B9"/>
<path d="M281.424 147.125L280.448 169.156C280.448 169.156 262.88 213.217 269.712 223.53C276.544 233.842 292.648 252.591 292.648 252.591C292.648 252.591 301.919 248.373 301.919 246.029C301.919 246.029 292.648 223.998 284.84 218.842C284.84 218.842 285.328 209.936 292.648 200.561L299.479 223.53L302.407 258.685C302.407 258.685 310.703 261.497 313.631 260.091C313.631 260.091 319.975 237.592 315.583 224.467L314.607 188.374C314.607 188.374 327.295 170.562 311.191 149.469L308.751 141.969C308.751 141.969 283.864 144.313 281.424 147.125Z" fill="#2F2E41"/>
<path d="M304.359 270.403C304.359 270.403 304.359 265.716 299.967 268.528C295.576 271.341 281.424 278.841 281.424 278.841C281.424 278.841 271.664 284.466 285.816 285.403C299.967 286.341 313.631 283.059 313.631 281.184C313.631 279.309 312.167 270.331 312.167 270.331C312.167 270.331 309.239 273.685 304.359 270.403Z" fill="#2F2E41"/>
<path d="M293.868 96.2669L309.203 87.8209C309.203 87.8209 331.93 88.2983 330.466 99.548C330.466 99.548 326.075 114.079 324.611 112.673L321.683 109.86C321.683 109.86 310.947 130.954 310.947 135.172C310.903 137.886 310.409 140.576 309.483 143.141L283.132 146.891C283.132 146.891 286.06 130.954 281.668 128.141C277.276 125.329 275.812 117.829 280.204 111.267C281.874 108.747 283.325 106.099 284.543 103.35C285.309 101.645 286.42 100.103 287.811 98.8135C289.202 97.5235 290.846 96.5112 292.647 95.8349L293.868 96.2669Z" fill="#F8BBD0"/>
<path d="M328.027 98.1417C328.027 98.1417 353.89 118.298 349.498 122.516C345.106 126.735 321.195 143.609 321.195 143.609C321.195 143.609 318.755 157.672 313.875 157.203C308.995 156.734 314.851 139.86 314.851 139.86L335.346 121.11L324.123 109.86L328.027 98.1417Z" fill="#FFB9B9"/>
<path d="M295.706 47.5313C299.574 47.5313 302.709 44.5192 302.709 40.8037C302.709 37.0881 299.574 34.076 295.706 34.076C291.838 34.076 288.702 37.0881 288.702 40.8037C288.702 44.5192 291.838 47.5313 295.706 47.5313Z" fill="#2F2E41"/>
<path d="M287.301 37.2155C287.301 35.5478 287.946 33.9395 289.111 32.7027C290.276 31.4659 291.877 30.6887 293.604 30.5219C293.374 30.4999 293.141 30.4879 292.904 30.4879C291.047 30.4879 289.265 31.1967 287.952 32.4584C286.638 33.7201 285.9 35.4313 285.9 37.2155C285.9 38.9998 286.638 40.711 287.952 41.9727C289.265 43.2343 291.047 43.9432 292.904 43.9432C293.141 43.9432 293.374 43.9312 293.604 43.9092C291.877 43.7423 290.276 42.9651 289.111 41.7283C287.946 40.4915 287.301 38.8833 287.301 37.2155Z" fill="#2F2E41"/>
<path d="M287.626 55.3403C287.626 55.3403 287.48 54.5583 281.76 56.6186C276.04 58.6789 272.612 73.8829 275.472 82.8108C276.624 86.4087 275.687 89.0028 274.156 90.8179C268.414 97.629 270.675 107.859 279.039 111.362C279.275 111.461 279.516 111.558 279.761 111.655L283.336 113.715C283.336 113.715 278.779 107.955 281.06 100.588C283.04 94.3101 283.285 87.6454 281.769 81.2494C281.508 80.1705 281.21 79.0583 280.873 77.9233C278.013 68.3086 279.404 69.4189 289.413 59.8043C289.413 59.8043 295.133 63.9248 300.138 65.9851C305.142 68.0454 309.432 70.1057 305.857 76.9733C302.283 83.841 293.703 90.0218 299.423 98.9497C305.142 107.878 305.857 104.444 305.142 107.878L304.427 111.311L308.717 107.191L305.857 112.685C305.857 112.685 315.152 112.685 318.012 105.817L319.442 107.191C319.442 107.191 325.161 97.5762 314.437 88.6483C314.437 88.6483 310.862 86.588 315.867 79.7204C320.872 72.8528 317.028 58.0873 310.593 55.3403C304.159 52.5932 287.626 55.3403 287.626 55.3403Z" fill="#2F2E41"/>
<path d="M146.697 35.3554L139.454 32.6103L132.211 29.8652L138.308 25.213L144.404 20.5604L145.551 27.9581L146.697 35.3554Z" fill="#F2F2F2"/>
<path d="M140.934 87.6425L133.692 84.8974L126.449 82.1519L132.2 78.3403L137.95 74.5286L139.442 81.0853L140.934 87.6425Z" fill="#F2F2F2"/>
<path d="M128.475 157.878L121.232 155.133L113.989 152.388L120.086 147.735L126.182 143.083L127.329 150.48L128.475 157.878Z" fill="#F2F2F2"/>
<path d="M52.5298 237.283L45.6894 240.855L38.849 244.428L39.0479 236.951L39.2472 229.475L45.8883 233.379L52.5298 237.283Z" fill="#F2F2F2"/>
<path d="M45.6966 69.5438L38.8562 73.1163L32.0158 76.6891L32.2147 69.2124L32.414 61.736L39.0551 65.6399L45.6966 69.5438Z" fill="#F2F2F2"/>
<path d="M80.4219 267.724C85.0949 275.378 94.5197 278.409 94.5197 278.409C94.5197 278.409 96.368 269.029 91.6949 261.374C87.0219 253.719 77.5971 250.688 77.5971 250.688C77.5971 250.688 75.7488 260.069 80.4219 267.724Z" fill="#F2F2F2"/>
<path d="M83.3379 265.052C91.4194 269.351 94.805 278.327 94.805 278.327C94.805 278.327 85.0878 280.332 77.0063 276.033C68.9248 271.733 65.5392 262.757 65.5392 262.757C65.5392 262.757 75.2563 260.752 83.3379 265.052Z" fill="#F8BBD0"/>
<path d="M229.299 261.383C223.871 268.564 224.759 278.072 224.759 278.072C224.759 278.072 234.446 275.939 239.874 268.758C245.302 261.577 244.414 252.068 244.414 252.068C244.414 252.068 234.727 254.202 229.299 261.383Z" fill="#F8BBD0"/>
<path d="M233.016 262.878C232.155 271.713 224.951 278.291 224.951 278.291C224.951 278.291 219.144 270.543 220.005 261.708C220.866 252.873 228.07 246.295 228.07 246.295C228.07 246.295 233.877 254.043 233.016 262.878Z" fill="#F8BBD0"/>
<path d="M324.577 94.3018L322.679 108.158L324.577 112.534C324.577 112.534 332.929 102.689 330.271 97.219C327.614 91.7493 324.577 94.3018 324.577 94.3018Z" fill="#F8BBD0"/>
</g>
<defs>
<clipPath id="clip0">
<rect width="350" height="265.008" fill="white" transform="translate(0 20.5604)"/>
</clipPath>
</defs>
</svg>
