<svg width="500" height="464" viewBox="0 0 500 464" fill="none" xmlns="http://www.w3.org/2000/svg">
<path fill-rule="evenodd" clip-rule="evenodd" d="M205.809 0.774821C272.409 -5.58441 341.826 27.6407 377.239 84.2442C409.476 135.771 377.858 197.465 366.153 257.064C353.613 320.917 362.52 396.803 308.647 433.512C248.48 474.508 164.997 472.373 100.901 437.8C39.7383 404.809 6.83637 336.352 0.498653 267.299C-4.92431 208.212 34.8877 160.526 71.1341 113.472C108.694 64.7139 144.433 6.63532 205.809 0.774821Z" fill="#FCE4EC" fill-opacity="0.32"/>
<g clip-path="url(#clip0)">
<g opacity="0.1">
<path opacity="0.1" d="M306.988 24.4196C302.593 28.0173 300.629 33.7192 298.915 39.1251C295.071 51.2553 291.478 63.4669 288.134 75.7598C283.259 93.6169 278.831 111.868 269.906 128.115C260.98 144.361 247.976 157.826 235.113 171.132L188.776 219.039C174.457 233.848 159.182 250.939 159.456 271.511C159.691 289.359 172.201 305.192 187.509 314.407C202.816 323.622 220.705 327.393 238.212 331.019C247.1 332.86 256.534 334.668 265.059 331.606C275.299 327.933 281.973 318.094 291.332 312.556C308.123 302.613 329.398 308.207 348.21 313.42C367.022 318.634 389.187 322.588 404.443 310.443C426.58 292.816 417.038 257.304 426.924 230.833C436.306 205.71 462.249 191.262 479.276 170.522C517.314 124.197 500.683 59.8519 448.19 33.8789C430.989 25.3918 414.033 25.8286 395.376 24.49C372.113 22.8274 327.038 7.99503 306.988 24.4196Z" fill="#F8BBD0"/>
</g>
<g opacity="0.5">
<path opacity="0.5" d="M163.652 292.374C163.652 292.374 85.8426 253.109 119.095 165.407C152.348 77.7043 31.9552 47.2834 31.9552 47.2834C31.9552 47.2834 8.37209 132.68 52.6793 189.548C96.9865 246.416 114.079 340.831 163.652 292.374Z" fill="#F8BBD0"/>
<path opacity="0.5" d="M31.9552 47.2834C31.9552 47.2834 64.7841 104.006 81.3493 177.792C97.9144 251.578 124.884 312.467 163.252 290.984" stroke="white" stroke-miterlimit="10"/>
</g>
<g opacity="0.5">
<path opacity="0.5" d="M146.936 306.718C146.936 306.718 115.822 262.179 157.101 219.246C198.379 176.313 142.109 125.395 142.109 125.395C142.109 125.395 106.619 169.601 115.092 215.427C123.565 261.254 107.443 321.903 146.936 306.718Z" fill="#F8BBD0"/>
<path opacity="0.5" d="M142.113 125.395C142.113 125.395 144.468 168.004 133.588 216.287C122.708 264.569 120.81 308.052 147.092 305.793" stroke="white" stroke-miterlimit="10"/>
</g>
<g opacity="0.1">
<path opacity="0.1" d="M55.218 376.93C55.7644 380.279 57.7096 382.829 59.5559 385.168L81.5282 412.945C83.2945 415.18 85.1926 417.505 87.5665 418.111C92.5261 419.421 96.5155 413.071 100.755 409.356C115.827 396.149 136.424 416.256 153.46 408.567C160.275 405.491 165.795 398.183 172.743 395.707C191.135 389.132 206.721 418.181 225.712 419.661C231.948 420.131 238.066 417.576 244.024 415.035L283.767 398.07C286.527 396.891 289.335 395.722 292.245 395.651C297.134 395.567 301.689 398.704 306.291 400.963C324.815 410.065 345.384 405.153 364.412 398.258C383.441 391.363 402.606 382.491 422.275 383.961C427.395 384.346 434.159 384.022 435.557 377.324C436.391 373.342 425.139 377.517 422.534 375.371C419.93 373.224 426.128 364.267 423.09 363.887C405.413 361.679 387.402 361.618 370.126 367.175C361.177 370.049 352.374 374.426 343.184 375.324C333.604 376.263 324.076 373.37 314.67 370.74C290.851 364.08 266.628 358.998 242.31 360.031C199.09 361.91 156.521 383.167 113.519 377.005C100.742 375.121 88.4007 370.999 77.0631 364.831C71.2604 361.708 71.5194 372.769 65.5989 376.493C63.6725 377.705 58.6281 366.404 57.1209 368.579C56.2623 369.775 55.6517 371.129 55.3249 372.563C54.9982 373.997 54.9618 375.482 55.218 376.93Z" fill="#F8BBD0"/>
</g>
<path d="M425.864 323.373L357.168 233.665C351.804 208.481 343.75 208.481 343.75 208.481C289.01 201.135 273.985 191.69 273.985 191.69L261.739 186.908L260.717 186.307C260.669 186.04 260.618 185.772 260.571 185.495C260.523 185.218 260.476 184.851 260.439 184.527C273.813 176.51 283.464 163.543 287.286 148.456C287.385 148.062 287.474 147.658 287.568 147.258C290.197 146.002 292.416 144.03 293.969 141.571C299.23 132.971 294.233 122.084 294.346 112.066C294.417 105.734 296.607 99.5301 296.357 93.2035C296.15 87.9056 294.247 82.819 292.17 77.925C291.162 75.5437 290.051 73.1108 288.119 71.3495C283 66.7138 274.71 68.7005 268.135 66.4179C259.629 63.4637 255.667 54.258 250.75 46.8559C248.866 44.0003 245.437 40.985 242.343 42.549C238.711 44.3807 239.696 50.6509 236.027 52.4122C233.803 53.4784 231.086 52.1351 229.498 50.2752C227.911 48.4153 227.002 46.081 225.438 44.2023C224.037 42.5767 222.22 41.359 220.182 40.6778C218.143 39.9965 215.958 39.8771 213.856 40.3321C213.023 40.4666 212.254 40.8594 211.657 41.4547C210.484 42.8167 211.219 44.8457 211.299 46.6211C211.577 52.6001 204.234 55.9207 198.167 56.5547C192.101 57.1888 184.951 57.2639 181.32 62.0781C179.398 64.6285 178.988 67.9491 177.693 70.8517C174.688 77.5821 167.42 81.2691 161.034 85.1345C154.647 88.9999 148.072 94.636 148.128 101.982C148.185 109.027 154.421 114.733 155.518 121.708C156.102 125.404 155.193 129.223 155.918 132.901C157.251 139.645 163.572 144.173 169.403 148.001C169.799 148.259 170.199 148.517 170.609 148.761C170.713 149.175 170.816 149.583 170.929 149.992C173.168 157.856 177.018 165.172 182.236 171.477C187.453 177.783 193.925 182.941 201.243 186.627C201.337 187.021 201.427 187.42 201.516 187.829C201.794 189.088 202.053 190.398 202.284 191.741L202.105 191.788V191.657L134.257 208.908C133.849 208.762 133.413 208.707 132.981 208.748C130.202 208.523 121.512 211.51 111.371 252.02L67.9069 328.619C67.9069 328.619 42.6847 352.756 62.0052 373.238C71.8539 383.67 82.9601 386.192 91.4805 386.159C96.4286 386.229 101.348 385.398 105.997 383.707C105.997 383.707 105.648 383.172 105.111 382.223L110.858 382.923C122.162 395.454 141.416 391.053 141.416 391.053C141.416 391.053 168.805 390.743 169.813 376.46L219.038 391.518L219.235 394.2H245.084L245.042 392.49L299.424 376.155C303.663 383.97 314.025 387.836 314.025 387.836C314.025 387.836 345.94 389.174 355.972 383.379C360.188 380.912 364.779 379.149 369.565 378.16L369.843 378.132L369.777 378.198L431.224 371.622C459.136 347.505 425.864 323.373 425.864 323.373ZM116.571 344.705L115.219 343.926C117.634 343.006 120.118 342.274 122.647 341.737L134.601 327.022L136.669 341.535C129.81 339.958 122.606 341.094 116.571 344.705ZM347.772 344.588C343.321 341.235 337.877 339.459 332.299 339.539L332.771 303.815C337.259 306.676 341.027 309.832 342.143 312.875C345.365 321.799 360.927 335.96 360.927 335.96L352.845 342.582L351.587 343.611C351.248 343.691 350.909 343.771 350.57 343.86L347.772 344.588Z" fill="url(#paint0_linear)"/>
<path d="M104 384.041L116.543 385.605L123.857 349.646L109.746 341.305L91.457 361.111L104 384.041Z" fill="#EFB7B9"/>
<path opacity="0.03" d="M104 384.041L116.543 385.605L123.857 349.646L109.746 341.305L91.457 361.111L104 384.041Z" fill="black"/>
<path d="M272.261 207.377L241.952 234.477C241.952 234.477 183.42 247.506 198.054 229.264C206.344 218.931 205.242 203.249 202.727 191.591C201.602 186.305 200.039 181.121 198.054 176.092C198.054 176.092 273.321 130.773 262.869 165.172C259.77 175.373 259.336 183.24 260.255 189.252C262.45 203.512 272.261 207.377 272.261 207.377Z" fill="#EFB7B9"/>
<path opacity="0.1" d="M262.869 165.172C259.77 175.373 259.336 183.24 260.255 189.252C251.681 194.546 241.881 197.544 231.805 197.955C221.728 198.367 211.716 196.178 202.736 191.601C201.611 186.314 200.048 181.13 198.064 176.101C198.064 176.101 273.321 130.773 262.869 165.172Z" fill="black"/>
<path d="M287.955 138.588C287.955 150.131 284.522 161.415 278.092 171.013C271.661 180.61 262.521 188.091 251.828 192.51C241.134 196.928 229.366 198.085 218.013 195.835C206.66 193.585 196.23 188.028 188.043 179.868C179.857 171.708 174.28 161.31 172.019 149.989C169.758 138.669 170.914 126.934 175.34 116.269C179.767 105.603 187.265 96.4859 196.888 90.0697C206.51 83.6534 217.824 80.2263 229.4 80.2217C237.094 80.1963 244.718 81.6884 251.832 84.6123C258.947 87.5362 265.411 91.8341 270.853 97.2587C276.295 102.683 280.608 109.128 283.543 116.221C286.478 123.313 287.977 130.915 287.955 138.588Z" fill="#EFB7B9"/>
<path d="M189.181 214.154V320.982L292.132 312.645L274.889 203.732L229.423 230.828L189.181 214.154Z" fill="#E1E7EF"/>
<path opacity="0.1" d="M245.098 279.815L233.639 247.506H234.11C246.13 234.477 240.901 226.662 240.901 226.662H224.219C213.597 234.177 220.969 243.913 223.47 246.717L218.468 279.815H245.098Z" fill="black"/>
<path d="M245.098 278.772L233.639 246.463H234.11C246.13 233.435 240.901 225.619 240.901 225.619H224.219C213.597 233.134 220.969 242.87 223.47 245.674L218.468 278.772H245.098Z" fill="#444053"/>
<path opacity="0.1" d="M260.396 191.098C260.396 191.098 257.099 206.334 234.128 226.657C234.128 226.657 241.193 229.006 242.23 247.764L250.854 259.506C250.854 259.506 257.646 235.013 269.666 226.676C281.686 218.339 269.666 196.452 269.666 196.452L260.396 191.098Z" fill="black"/>
<path d="M260.396 190.065C260.396 190.065 257.099 205.301 234.128 225.624C234.128 225.624 241.193 227.972 242.23 246.731L250.854 258.473C250.854 258.473 257.646 233.979 269.666 225.643C281.686 217.306 269.666 195.419 269.666 195.419L260.396 190.065Z" fill="#E1E7EF"/>
<path opacity="0.1" d="M229.4 226.657C229.4 226.657 219.508 234.477 218.972 246.985C218.435 259.492 213.225 259.492 213.225 259.492C213.225 259.492 200.16 219.368 195.982 215.718C191.804 212.069 203.518 196.678 203.518 196.678C203.518 196.678 210.088 218.32 229.4 226.657Z" fill="black"/>
<path d="M229.4 225.619C229.4 225.619 219.508 233.435 218.972 245.956C218.435 258.478 213.225 258.464 213.225 258.464C213.225 258.464 200.155 218.32 195.958 214.676C191.762 211.031 203.494 195.635 203.494 195.635C203.494 195.635 210.088 217.278 229.4 225.619Z" fill="#E1E7EF"/>
<path opacity="0.1" d="M259.732 190.182L272.798 195.396C272.798 195.396 287.432 204.789 340.735 212.074C340.735 212.074 348.573 212.074 353.801 237.089L420.683 326.2C420.683 326.2 453.083 350.154 425.911 374.145L366.094 380.659C366.094 380.659 400.585 347.829 348.328 346.786L357.983 338.703C357.983 338.703 342.826 324.613 339.694 315.773C336.562 306.934 310.963 297.015 310.963 297.015L314.1 372.055L267.047 379.344L260.264 239.709C259.938 233.124 260.317 226.522 261.395 220.016C263.166 209.425 265.036 192.648 259.732 190.182Z" fill="black"/>
<path d="M260.255 190.182L273.32 195.396C273.32 195.396 287.955 204.789 341.258 212.074C341.258 212.074 349.095 212.074 354.324 237.089L421.206 326.2C421.206 326.2 453.606 350.154 426.434 374.145L366.617 380.659C366.617 380.659 401.108 347.829 348.851 346.786L358.52 338.708C358.52 338.708 343.363 324.617 340.231 315.778C337.099 306.939 311.5 297.019 311.5 297.019L314.637 372.059L267.551 379.344L260.768 239.709C260.442 233.124 260.821 226.522 261.899 220.016C263.688 209.425 265.558 192.648 260.255 190.182Z" fill="#67647E"/>
<path opacity="0.1" d="M203.815 195.391L137.446 212.609C137.446 212.609 127.517 206.358 115.497 255.35L73.1679 331.437C73.1679 331.437 48.6052 355.391 67.4217 375.732C86.2383 396.074 109.765 386.121 109.765 386.121C109.765 386.121 88.3389 352.774 125.967 344.433L140.097 326.717L203.852 334.011L202.246 242.293L204.031 231.603C205.963 220.049 205.963 208.255 204.031 196.701L203.815 195.391Z" fill="black"/>
<path d="M203.292 195.391L136.923 212.609C136.923 212.609 126.994 206.358 114.974 255.35L72.6451 331.437C72.6451 331.437 48.0635 355.391 66.9036 375.699C85.7437 396.008 109.233 386.121 109.233 386.121C109.233 386.121 87.8067 352.774 125.435 344.433L139.565 326.717L203.32 334.011L201.723 242.293L203.494 231.603C205.426 220.049 205.426 208.255 203.494 196.701L203.292 195.391Z" fill="#67647E"/>
<path d="M137.969 246.463L131.695 251.151L226.286 275.123V265.744L137.969 246.463Z" fill="#E4E6ED"/>
<path d="M320.878 244.899L327.147 249.591L226.286 275.123V265.744L320.878 244.899Z" fill="#E4E6ED"/>
<path d="M125.949 246.463L213.743 266.786L220.013 393.942L143.192 369.969L125.949 246.463Z" fill="#F8BBD0"/>
<path d="M331.329 246.463L237.783 267.829L243.007 395.506L329.761 368.927L331.329 246.463Z" fill="#F8BBD0"/>
<path d="M210.607 266.786C210.607 266.786 225.933 276.18 242.046 266.786L245.183 396.548H220.017L210.607 266.786Z" fill="#F8BBD0"/>
<path opacity="0.1" d="M210.607 266.786C210.607 266.786 225.933 276.18 242.046 266.786L245.183 396.548H220.017L210.607 266.786Z" fill="black"/>
<path d="M140.06 244.899V248.549L226.286 265.744C226.286 265.744 182.389 249.587 140.06 244.899Z" fill="#D8D9E5"/>
<path d="M319.309 242.814V246.463L226.286 265.743C226.286 265.743 276.971 247.506 319.309 242.814Z" fill="#D8D9E5"/>
<path d="M347.894 346.551L345.167 347.284C345.167 347.284 327.406 331.785 304.765 355.268C282.124 378.752 312.301 390.245 312.301 390.245C312.301 390.245 343.387 391.574 353.151 385.816C357.353 383.303 361.955 381.526 366.758 380.56C369.695 379.986 372.368 378.482 374.379 376.272C376.207 374.276 377.565 371.896 378.352 369.309C379.139 366.721 379.336 363.991 378.929 361.318C378.401 357.809 376.852 354.532 374.474 351.892C372.097 349.252 368.994 347.366 365.552 346.467C359.759 344.965 353.673 344.994 347.894 346.551Z" fill="#EFB7B9"/>
<path d="M117.588 349.125C117.588 349.125 138.491 330.366 164.1 361.632C189.708 392.899 144.238 393.434 144.238 393.434C144.238 393.434 119.656 399.15 110.269 378.827C100.882 358.504 117.588 349.125 117.588 349.125Z" fill="#EFB7B9"/>
<path opacity="0.1" d="M350.108 345.278C350.108 345.278 374.407 352.352 369.198 380.312L383.884 378.715L386.983 364.498L380.714 344.696L368.694 339.999L350.108 345.278Z" fill="black"/>
<path d="M350.631 345.278C350.631 345.278 374.93 352.352 369.721 380.312L384.407 378.715L387.506 364.498L381.237 344.696L369.217 339.999L350.631 345.278Z" fill="#67647E"/>
<path opacity="0.1" d="M287.955 138.588C287.959 143.26 287.399 147.915 286.287 152.453C282.615 154.193 278.503 154.796 274.484 154.182C267.56 153.125 261.447 149.015 256.383 144.192C251.32 139.368 247.072 133.755 242.187 128.739C237.76 124.193 232.296 119.942 225.947 119.759C220.182 119.59 214.93 122.803 209.372 124.324C203.551 125.921 191.823 121.563 188.983 126.485C187.315 129.378 187.904 135.742 186.92 139.166C185.849 142.906 184.343 146.508 182.431 149.898C181.018 152.373 178.941 154.999 176.091 154.975C174.98 154.92 173.902 154.577 172.964 153.98C170.76 145.953 170.304 137.548 171.624 129.331C172.945 121.113 176.013 113.272 180.622 106.334C185.23 99.3957 191.274 93.5203 198.347 89.102C205.419 84.6837 213.358 81.8246 221.629 80.7165C229.901 79.6084 238.314 80.2769 246.306 82.6772C254.297 85.0775 261.681 89.154 267.963 94.6334C274.245 100.113 279.279 106.868 282.728 114.447C286.176 122.025 287.96 130.252 287.959 138.574L287.955 138.588Z" fill="black"/>
<path d="M209.368 123.291C214.93 121.769 220.201 118.557 225.942 118.726C232.292 118.909 237.76 123.159 242.183 127.706C247.062 132.717 251.311 138.33 256.379 143.158C261.447 147.986 267.556 152.082 274.479 153.148C281.403 154.214 289.198 151.617 292.792 145.633C297.912 137.095 293.051 126.278 293.159 116.33C293.23 110.041 295.359 103.879 295.119 97.595C294.916 92.3346 293.065 87.2621 291.044 82.4198C290.06 80.0714 288.981 77.6385 287.097 75.896C282.109 71.2932 274.041 73.2658 267.636 70.9973C259.355 68.0618 255.493 58.9172 250.708 51.5668C248.861 48.7487 245.527 45.7381 242.522 47.288C238.984 49.1104 239.945 55.3383 236.37 57.0855C234.204 58.1423 231.557 56.8084 230.012 54.9625C228.467 53.1167 227.577 50.7965 226.06 48.9319C224.71 47.3193 222.942 46.1076 220.949 45.4292C218.955 44.7508 216.813 44.6318 214.756 45.0853C213.941 45.2198 213.191 45.6097 212.613 46.1984C211.473 47.5511 212.184 49.566 212.264 51.332C212.538 57.2687 205.402 60.5658 199.477 61.1951C193.552 61.8245 186.604 61.8997 183.072 66.6856C181.188 69.2172 180.802 72.5143 179.539 75.3981C176.61 82.0863 169.535 85.731 163.313 89.587C157.091 93.4431 150.69 99.0275 150.747 106.322C150.803 113.334 156.87 119.003 157.944 125.921C158.509 129.594 157.628 133.389 158.335 137.038C159.63 143.736 165.786 148.231 171.466 152.035C172.879 152.974 174.386 153.956 176.082 153.97C178.908 153.994 181.023 151.368 182.422 148.893C184.333 145.503 185.84 141.901 186.91 138.161C187.895 134.728 187.306 128.363 188.973 125.48C191.818 120.529 203.546 124.883 209.368 123.291Z" fill="#585268"/>
</g>
<defs>
<linearGradient id="paint0_linear" x1="248.551" y1="394.2" x2="248.551" y2="40.0503" gradientUnits="userSpaceOnUse">
<stop stop-color="#808080" stop-opacity="0.25"/>
<stop offset="0.54" stop-color="#808080" stop-opacity="0.12"/>
<stop offset="1" stop-color="#808080" stop-opacity="0.1"/>
</linearGradient>
<clipPath id="clip0">
<rect width="474.319" height="402.982" fill="white" transform="translate(25.6815 16.7545)"/>
</clipPath>
</defs>
</svg>
